<svg xmlns="http://www.w3.org/2000/svg" width="188" height="96" viewBox="0 0 188 96" fill="none"><path d="M42.4859 0H0V96H42.4859V0Z" fill="#0060AC"></path><path d="M103.712 0H42.4857V96H103.712V0Z" fill="#E6273C"></path><path d="M50.6502 90.8776C50.1187 91.1559 49.5287 91.3038 48.9289 91.3092C47.5497 91.3092 46.9022 90.3196 46.9022 88.8299C46.9022 87.3402 47.5971 86.4348 49.0394 86.4348C49.5767 86.4102 50.1078 86.5577 50.5555 86.8559L50.1712 87.5455C49.8341 87.3352 49.4417 87.2307 49.0447 87.2454C48.2182 87.2454 47.8445 87.8824 47.8445 88.8246C47.8445 89.9353 48.2393 90.5407 49.0184 90.5407C49.2959 90.5437 49.5707 90.4862 49.8238 90.3723V89.509H49.2131L49.1658 88.8352H50.6765L50.6502 90.8776Z" fill="white"></path><path d="M53.4666 89.5308C53.4666 88.7044 53.2245 88.4201 52.8086 88.4201C52.3927 88.4201 52.1611 88.7149 52.1611 89.5308C52.1611 90.3467 52.3717 90.6415 52.8086 90.6415C53.2455 90.6415 53.4666 90.3415 53.4666 89.5308ZM54.3825 89.5308C54.3825 90.6889 53.8088 91.3101 52.8033 91.3101C51.7979 91.3101 51.2241 90.6994 51.2241 89.5308C51.2241 88.5254 51.7505 87.7568 52.8033 87.7568C53.8561 87.7568 54.3825 88.5254 54.3825 89.5308Z" fill="white"></path><path d="M55.9402 90.2938C56.0083 90.3937 56.0981 90.4768 56.203 90.537C56.3078 90.5972 56.4249 90.6328 56.5455 90.6412C56.9351 90.6412 57.2246 90.3517 57.2246 89.5252C57.2246 88.6988 56.9719 88.4251 56.5613 88.4251C56.3273 88.4355 56.1057 88.5331 55.9402 88.6988V90.2938ZM55.877 88.1882C55.9857 88.0575 56.1217 87.9521 56.2753 87.8794C56.429 87.8067 56.5966 87.7683 56.7666 87.7671C57.551 87.7671 58.1195 88.3408 58.1195 89.5358C58.1195 90.7307 57.4352 91.3203 56.6561 91.3203C56.4664 91.3315 56.277 91.2927 56.107 91.2077C55.937 91.1227 55.7923 90.9945 55.6875 90.836L55.5243 91.2518H55.0453V86.4458H55.9402V87.6355L55.877 88.1882Z" fill="white"></path><path d="M59.041 86.4351H59.9412V87.2615H59.041V86.4351ZM59.0674 91.2411V88.4986L58.6884 88.4143V87.83H59.957V91.2411H59.0674Z" fill="white"></path><path d="M62.1576 88.4248C61.7154 88.4248 61.5365 88.8354 61.5365 89.2407H62.7577C62.7577 88.8038 62.6208 88.4248 62.1576 88.4248ZM61.5365 89.7987C61.5235 89.9139 61.5369 90.0305 61.5757 90.1396C61.6144 90.2488 61.6776 90.3478 61.7603 90.4289C61.8429 90.5101 61.943 90.5714 62.0529 90.6081C62.1628 90.6448 62.2796 90.6561 62.3945 90.641C62.7391 90.6189 63.0741 90.518 63.3736 90.3462L63.542 90.9884C63.1596 91.2053 62.7288 91.3229 62.2892 91.3306C61.2364 91.3306 60.631 90.6778 60.631 89.5461C60.631 88.4933 61.1259 87.7773 62.2102 87.7773C63.2946 87.7773 63.621 88.5459 63.621 89.4039V89.7987H61.5365Z" fill="white"></path><path d="M66.1897 88.5884C66.053 88.5477 65.911 88.5282 65.7685 88.5305C65.5478 88.5362 65.3358 88.618 65.1684 88.7621V91.2414H64.2788V87.8303H64.9052C64.9368 87.9883 64.9737 88.1357 65 88.2883C65.0694 88.1346 65.1808 88.0036 65.3215 87.9104C65.4621 87.8173 65.6262 87.7658 65.7948 87.7619C65.9245 87.7598 66.0539 87.7757 66.1791 87.8093C66.1791 88.0672 66.1791 88.3357 66.1791 88.5831" fill="white"></path><path d="M68.8056 91.2414V89.2148C68.8056 88.6884 68.6108 88.4568 68.2002 88.4568C67.9897 88.4675 67.7869 88.5388 67.6159 88.6621V91.2414H66.721V87.8303H67.3369L67.4738 88.2199C67.6049 88.0706 67.7671 87.9518 67.9489 87.8718C68.1308 87.7918 68.3279 87.7525 68.5266 87.7566C69.3741 87.7566 69.7057 88.283 69.7057 89.1306V91.2362L68.8056 91.2414Z" fill="white"></path><path d="M72.5333 89.5308C72.5333 88.7044 72.2912 88.4201 71.8753 88.4201C71.4595 88.4201 71.2331 88.7149 71.2331 89.5308C71.2331 90.3467 71.4437 90.6415 71.8753 90.6415C72.307 90.6415 72.5333 90.3415 72.5333 89.5308ZM73.4492 89.5308C73.4492 90.6889 72.8755 91.3101 71.87 91.3101C70.8646 91.3101 70.2908 90.6994 70.2908 89.5308C70.2908 88.5254 70.8172 87.7568 71.87 87.7568C72.9228 87.7568 73.4492 88.5254 73.4492 89.5308Z" fill="white"></path><path d="M77.7017 88.6094C77.5197 88.4975 77.3099 88.4392 77.0963 88.441C76.6752 88.441 76.4067 88.7358 76.4067 89.5254C76.4067 90.315 76.6594 90.6466 77.0858 90.6466C77.2026 90.6423 77.3174 90.6144 77.4233 90.5647C77.5291 90.5149 77.6238 90.4443 77.7017 90.3571V88.6094ZM77.7859 88.083C77.7278 87.8794 77.6995 87.6684 77.7017 87.4566V86.4038H78.5913V91.2099H77.8701L77.7648 90.8309C77.6655 90.9723 77.5328 91.0871 77.3786 91.1651C77.2244 91.2432 77.0533 91.282 76.8805 91.2783C76.1172 91.2783 75.5118 90.7203 75.5118 89.5043C75.5118 88.3726 76.1383 87.7251 76.9542 87.7251C77.1091 87.7165 77.2639 87.7422 77.4077 87.8005C77.5515 87.8587 77.6806 87.948 77.7859 88.062" fill="white"></path><path d="M80.7977 88.4248C80.3556 88.4248 80.1766 88.8354 80.1766 89.2407H81.3978C81.3978 88.8038 81.261 88.4248 80.7977 88.4248ZM80.1713 89.7987C80.1583 89.9139 80.1718 90.0305 80.2105 90.1396C80.2493 90.2488 80.3124 90.3478 80.3951 90.4289C80.4778 90.5101 80.5779 90.5714 80.6878 90.6081C80.7977 90.6448 80.9145 90.6561 81.0294 90.641C81.3741 90.6196 81.7092 90.5187 82.0085 90.3462L82.1822 90.9884C81.7975 91.2045 81.3653 91.3221 80.9241 91.3306C79.8713 91.3306 79.2712 90.6778 79.2712 89.5461C79.2712 88.4933 79.7607 87.7773 80.8504 87.7773C81.94 87.7773 82.2611 88.5459 82.2611 89.4039V89.7987H80.1713Z" fill="white"></path><path d="M86.315 91.3092C85.0148 91.3092 84.3252 90.4196 84.3252 88.8509C84.3252 87.4086 85.0095 86.4348 86.315 86.4348C86.8692 86.4109 87.4182 86.55 87.8942 86.8348L87.552 87.556C87.2168 87.3352 86.8216 87.2231 86.4203 87.2349C85.6517 87.2349 85.2727 87.8139 85.2727 88.8457C85.2727 89.8774 85.6517 90.5091 86.4045 90.5091C86.845 90.496 87.2703 90.3451 87.6205 90.0775L87.91 90.8092C87.4525 91.1472 86.8996 91.3315 86.3308 91.3356" fill="white"></path><path d="M88.515 91.2411V86.4351H89.4098V87.6932C89.4041 87.8719 89.3739 88.049 89.3203 88.2196C89.4292 88.0712 89.5721 87.9513 89.737 87.8697C89.9019 87.7882 90.084 87.7475 90.2679 87.7511C91.2312 87.7511 91.5049 88.2775 91.5049 89.125V91.2306H90.5995V89.2039C90.6049 89.1299 90.5864 89.0561 90.5469 88.9934C90.5205 88.6091 90.331 88.467 89.9941 88.467C89.7837 88.4777 89.5808 88.549 89.4098 88.6723V91.2516L88.515 91.2411Z" fill="white"></path><path d="M92.4732 86.4351H93.3786V87.2615H92.4732V86.4351ZM92.5048 91.2411V88.4986L92.1205 88.4143V87.83H93.3891V91.2411H92.5048Z" fill="white"></path><path d="M94.2046 90.3254V86.4248H95.0837V90.2728C95.0837 90.5623 95.2522 90.6044 95.6101 90.6044V91.2414C95.4473 91.2758 95.2817 91.2952 95.1153 91.2993C94.4362 91.2993 94.1888 90.9308 94.1888 90.3254" fill="white"></path><path d="M97.6007 88.4248C97.1532 88.4248 96.9795 88.8354 96.9795 89.2407H98.2008C98.2008 88.8038 98.0639 88.4248 97.6007 88.4248ZM96.9795 89.7987C96.9665 89.9139 96.9799 90.0305 97.0187 90.1396C97.0575 90.2488 97.1206 90.3478 97.2033 90.4289C97.286 90.5101 97.3861 90.5714 97.496 90.6081C97.6058 90.6448 97.7227 90.6561 97.8375 90.641C98.1822 90.6189 98.5171 90.518 98.8166 90.3462L98.9851 90.9884C98.6026 91.2053 98.1719 91.3229 97.7323 91.3306C96.6795 91.3306 96.0741 90.6778 96.0741 89.5461C96.0741 88.4933 96.5689 87.7773 97.6533 87.7773C98.7377 87.7773 99.0641 88.5459 99.0641 89.4039V89.7987H96.9795Z" fill="white"></path><path d="M22.1305 13.1706C22.2231 13.1111 22.2886 13.0177 22.3132 12.9105C22.3378 12.8033 22.3195 12.6907 22.2621 12.5968C22.1884 12.4442 21.9884 12.4284 22.0726 12.4126C23.1254 12.1546 23.7097 10.5702 23.6518 9.95953C24.0404 10.2513 24.5179 10.3996 25.0034 10.3795C25.4888 10.3593 25.9524 10.1719 26.3154 9.84899C26.8945 9.28574 27.1682 7.80128 26.1838 7.05906C25.8948 6.86293 25.5525 6.76028 25.2032 6.76499C24.8539 6.76969 24.5145 6.88153 24.2309 7.08538C24.1524 6.93532 24.0366 6.80804 23.8946 6.71583C23.7526 6.62361 23.5892 6.56959 23.4202 6.55897C23.4338 6.09738 23.291 5.64474 23.0149 5.27455C22.4885 4.67972 20.9882 4.63761 20.4408 5.27455C19.388 5.00082 17.972 5.50617 18.0457 7.22224C17.553 6.99199 17.0078 6.89749 16.4664 6.94851C16.0558 7.02832 15.6845 7.24553 15.4136 7.5644C15.3262 7.68527 15.2471 7.81189 15.1768 7.94341C14.9863 8.33595 14.9426 8.7837 15.0537 9.20565C15.1647 9.62759 15.4231 9.99585 15.7821 10.2438C16.2884 10.4899 16.8575 10.5762 17.414 10.4912C17.6722 10.4412 17.907 10.3081 18.0825 10.1122C18.1562 10.0438 18.2036 9.92795 18.3089 9.92269C18.2828 10.2111 18.3507 10.5003 18.5025 10.747C18.6543 10.9936 18.8818 11.1846 19.1511 11.2913C19.1511 11.3334 19.1511 11.3703 19.1511 11.4282C19.1877 11.6945 19.3103 11.9416 19.5004 12.1317C19.6905 12.3218 19.9376 12.4444 20.2039 12.481C20.1501 12.5135 20.104 12.5572 20.0686 12.6092C20.0332 12.6611 20.0095 12.7201 19.999 12.782C19.9885 12.844 19.9915 12.9075 20.0078 12.9682C20.0241 13.0289 20.0533 13.0854 20.0934 13.1337C20.7388 12.8952 21.4483 12.8952 22.0937 13.1337" fill="white"></path><path d="M24.0723 16.5821L22.1299 17.9981L22.8932 20.2406L21.0244 18.7983L19.1662 20.2406L19.8927 17.9981L17.9502 16.5821H20.3401L21.0086 14.3133L21.6824 16.5821H24.0723ZM24.6566 16.5821C24.6864 15.8429 24.952 15.1327 25.4146 14.5555C25.4467 14.5245 25.471 14.4865 25.4856 14.4444C25.5002 14.4024 25.5048 14.3575 25.4988 14.3133C25.4947 14.2772 25.4827 14.2424 25.4635 14.2115C25.4444 14.1806 25.4187 14.1542 25.3883 14.1343C25.1725 13.9869 24.6935 13.6869 24.6935 13.6869L24.6566 13.65H24.6145C24.5619 13.65 24.5197 13.6816 24.4566 13.7343C24.2296 13.9293 23.9399 14.0358 23.6406 14.0343H23.3985C23.1885 13.9806 22.9854 13.9029 22.7931 13.8027C22.682 13.7423 22.5678 13.6879 22.451 13.6395C22.044 13.4524 21.6013 13.3555 21.1534 13.3555C20.7054 13.3555 20.2628 13.4524 19.8558 13.6395H19.8295L19.6716 13.7132L19.2926 13.8922C19.1616 13.9551 19.0238 14.0028 18.882 14.0343H18.6398C18.342 14.037 18.0535 13.9302 17.8292 13.7343C17.7607 13.6816 17.7186 13.65 17.6712 13.65H17.6291C17.6291 13.65 17.1343 13.9606 16.929 14.1028C16.8956 14.1234 16.867 14.151 16.8452 14.1837C16.8234 14.2164 16.8089 14.2535 16.8027 14.2923C16.7993 14.3362 16.8051 14.3804 16.8196 14.4221C16.8341 14.4638 16.857 14.502 16.8869 14.5344C17.3574 15.1325 17.6182 15.8686 17.6291 16.6295C17.651 17.277 17.4667 17.9148 17.1027 18.4508C16.9153 18.7979 16.8198 19.1871 16.8253 19.5814C16.8309 19.9758 16.9372 20.3622 17.1343 20.7038C17.3556 21.0308 17.66 21.2929 18.0162 21.4632C18.3724 21.6334 18.7676 21.7056 19.161 21.6724C19.282 21.6724 20.3927 21.6724 20.777 22.4199C20.777 22.4199 20.9718 22.7358 21.0402 22.8779L21.1297 23.0516L21.2139 22.8779C21.2876 22.741 21.4613 22.4515 21.4877 22.4094C21.8614 21.6935 22.9774 21.6724 23.0985 21.6724C23.4882 21.7017 23.8789 21.6292 24.2323 21.4622C24.5857 21.2952 24.8897 21.0393 25.1146 20.7196C25.3129 20.3757 25.4204 19.987 25.4268 19.59C25.4332 19.1931 25.3385 18.801 25.1514 18.4508C24.795 17.9068 24.6217 17.2631 24.6566 16.6137" fill="white"></path><path d="M28.3678 27.1044C28.2919 26.9451 28.2353 26.7772 28.1994 26.6043C28.1427 26.394 28.0705 26.1882 27.9836 25.9885C28.231 25.92 28.4731 25.8358 28.7153 25.7516C28.6954 26.2219 28.577 26.6828 28.3678 27.1044ZM25.32 27.9993C25.0778 27.9625 24.9515 27.1992 24.8883 26.6043C25.7861 26.4832 26.6756 26.3074 27.5519 26.0779C27.7277 26.5342 27.8496 27.0094 27.9151 27.494C26.8623 28.5994 25.32 27.9835 25.32 27.9835V27.9993ZM25.6516 24.4408C26.1018 24.4539 26.5288 24.6429 26.8413 24.9672C26.2622 25.0988 25.5884 25.2252 24.8409 25.3305C24.9673 24.4566 25.6516 24.4619 25.6516 24.4619V24.4408ZM24.562 23.4091C25.1653 23.1285 25.8418 23.0457 26.495 23.1724C27.1482 23.299 27.7447 23.6287 28.1994 24.1145C28.2897 24.2389 28.369 24.371 28.4363 24.5093C28.1099 24.6145 27.6993 24.7304 27.2361 24.8514C26.7083 24.3516 26.0319 24.0374 25.3094 23.9565C24.6672 23.8091 24.5146 23.4301 24.562 23.4301V23.4091ZM21.8826 25.5779C22.2405 24.8251 23.0301 24.3303 23.3249 23.9144C23.372 23.847 23.433 23.7905 23.5039 23.7487C23.5747 23.7069 23.6537 23.6809 23.7355 23.6723C24.0724 23.6723 24.1408 24.4724 24.2619 25.4199C23.5407 25.5042 22.7459 25.5568 21.9036 25.5779H21.8826ZM18.2188 25.4199C18.3136 24.4724 18.382 23.6723 18.7452 23.6723C18.8262 23.6813 18.9043 23.7075 18.9742 23.7493C19.0441 23.7911 19.1043 23.8474 19.1505 23.9144C19.4453 24.3303 20.2349 24.8251 20.5981 25.5779C19.7506 25.5779 18.9558 25.5042 18.2399 25.4199H18.2188ZM17.1871 23.9776C16.4672 24.0585 15.793 24.3706 15.2657 24.8672C14.8024 24.7514 14.3866 24.6356 14.0602 24.5303C14.1275 24.3921 14.2068 24.2599 14.2971 24.1355C14.7518 23.6498 15.3483 23.3201 16.0015 23.1934C16.6547 23.0667 17.3312 23.1496 17.9345 23.4301C17.9819 23.4301 17.8293 23.8302 17.1871 23.9565V23.9776ZM15.6605 24.9462C15.9713 24.6226 16.3965 24.4337 16.8449 24.4198C16.8449 24.4198 17.5345 24.4198 17.6556 25.2883C16.9081 25.1831 16.2343 25.0567 15.6605 24.9199V24.9462ZM17.1028 27.9993C17.1028 27.9993 15.5657 28.6152 14.5129 27.5098C14.5753 27.0235 14.6955 26.5463 14.8709 26.0885C15.7484 26.3204 16.6398 26.4963 17.5397 26.6149C17.4766 27.2097 17.345 27.9783 17.1028 28.0151V27.9993ZM14.2234 26.6307C14.1875 26.8035 14.1309 26.9714 14.055 27.1307C13.8454 26.7074 13.727 26.2447 13.7075 25.7726C13.9497 25.8569 14.1918 25.9411 14.4392 26.0148C14.3515 26.2142 14.2793 26.4201 14.2234 26.6307ZM10.607 25.5779C10.607 25.5779 10.5386 25.641 10.4596 25.5463C9.69635 24.5935 10.8597 23.5091 11.2282 24.1671C11.2282 24.1671 10.7913 24.1671 10.8386 24.4987C10.8386 24.4987 10.8386 24.8251 11.244 24.804C11.244 24.804 11.7704 24.7461 11.6598 24.0723C11.6323 23.9759 11.5807 23.888 11.5097 23.8171C11.4388 23.7462 11.351 23.6945 11.2545 23.667C10.994 23.5923 10.7156 23.6096 10.4664 23.716C10.2171 23.8224 10.0121 24.0115 9.88585 24.2513C9.82516 24.4205 9.79141 24.5981 9.78583 24.7777C9.68121 24.6812 9.55182 24.6156 9.41209 24.5882C9.08754 23.7769 8.98753 22.8932 9.12257 22.0299C9.6007 21.9334 10.0416 21.7031 10.3939 21.3657C10.7461 21.0284 10.9953 20.5978 11.1124 20.1243C11.2365 20.1771 11.346 20.2594 11.4313 20.3639C11.5165 20.4685 11.5751 20.5922 11.6019 20.7244C11.6019 20.9245 11.5282 21.135 11.6493 21.2982C11.8788 21.5354 12.1434 21.736 12.4336 21.893C12.5126 21.9404 13.5917 22.7932 13.7286 22.8195C13.8655 22.8458 13.976 22.7353 14.1129 22.7616C14.1561 22.778 14.1955 22.8031 14.2287 22.8353C14.2879 22.8925 14.3512 22.9453 14.4182 22.9932C14.0169 23.2701 13.6352 23.5744 13.2759 23.9039C13.2759 23.9039 12.9021 24.3935 10.607 25.5515V25.5779ZM37.6325 25.999C37.3904 25.6989 36.7429 25.8516 36.7429 25.8516C36.7983 25.7265 36.8268 25.5913 36.8267 25.4545C36.8266 25.3178 36.7979 25.1825 36.7423 25.0576C36.6868 24.9326 36.6057 24.8206 36.5042 24.7289C36.4028 24.6372 36.2833 24.5678 36.1533 24.5251C36.0367 24.483 35.912 24.4683 35.7888 24.482C35.6656 24.4956 35.5472 24.5374 35.4427 24.604L35.3743 24.6619C35.2846 24.7577 35.2339 24.8834 35.2321 25.0146C35.2321 25.1542 35.2876 25.2881 35.3863 25.3868C35.485 25.4856 35.6189 25.541 35.7585 25.541C35.8609 25.5403 35.9604 25.5071 36.0428 25.4463C36.1444 25.3755 36.2143 25.2678 36.2376 25.1462C36.322 25.2042 36.3864 25.287 36.4218 25.3831C36.7008 26.2832 35.7112 26.6043 35.7112 26.6043C35.1219 26.821 34.4883 26.8887 33.8665 26.8014C33.2448 26.7142 32.6543 26.4747 32.1474 26.1043L32.5264 25.899C32.6356 25.8491 32.7538 25.8222 32.8738 25.82C32.871 25.8427 32.871 25.8657 32.8738 25.8884C32.8738 26.0029 32.9193 26.1127 33.0003 26.1937C33.0812 26.2746 33.191 26.3201 33.3055 26.3201C33.42 26.3201 33.5298 26.2746 33.6107 26.1937C33.6917 26.1127 33.7371 26.0029 33.7371 25.8884C33.7428 25.79 33.7129 25.6929 33.6529 25.6147C33.395 25.2252 32.5106 25.4831 32.5106 25.4831C32.5998 25.2843 32.6485 25.0698 32.6539 24.852C32.6593 24.6342 32.6214 24.4175 32.5422 24.2145C32.416 23.9746 32.211 23.7856 31.9617 23.6791C31.7124 23.5727 31.4341 23.5554 31.1736 23.6302C31.0771 23.6577 30.9892 23.7093 30.9183 23.7803C30.8474 23.8512 30.7957 23.939 30.7682 24.0355C30.6366 24.7093 31.1841 24.7672 31.1841 24.7672C31.5842 24.7672 31.5842 24.4619 31.5842 24.4619C31.6368 24.146 31.1999 24.1303 31.1999 24.1303C31.5684 23.4723 32.7317 24.5566 31.9684 25.5094C31.8895 25.6042 31.821 25.541 31.821 25.541C30.9902 25.152 30.1972 24.6867 29.4522 24.1513C29.4206 23.7723 29.0943 23.5828 29.1574 23.4828C29.2101 23.4828 29.4049 23.5565 29.5101 23.3933C29.547 23.3354 29.6365 22.7353 29.7102 22.3142C30.466 22.6898 31.3254 22.8028 32.1527 22.6353C32.2113 22.6156 32.2617 22.577 32.296 22.5255C32.3303 22.4741 32.3466 22.4127 32.3422 22.351C32.3422 21.8878 31.1736 19.1347 31.142 18.1398C31.7 18.4241 32.0474 17.5397 32.1527 17.2712C32.9054 17.6187 33.1634 24.7567 33.7319 24.9988C34.0214 25.1199 34.1372 24.6303 34.1635 24.5408C34.8417 22.1634 35.1454 19.6948 35.0637 17.2239C35.0302 15.738 34.8324 14.2603 34.4741 12.8179C34.2372 11.9967 33.7793 10.3122 32.7107 10.0806C32.5992 10.0649 32.4858 10.0741 32.3783 10.1074C32.2708 10.1407 32.1721 10.1974 32.0891 10.2733C32.0061 10.3493 31.9409 10.4427 31.8982 10.5468C31.8555 10.6508 31.8363 10.7631 31.8421 10.8754C31.8421 11.2439 32.1 11.4018 31.9895 11.7861C31.8458 12.0248 31.7342 12.2815 31.6579 12.5494C31.5947 12.8126 31.821 12.9231 31.7473 13.2021C31.4104 13.1548 31.2209 13.4548 30.6945 13.3179C31.042 13.1548 31.0472 12.1441 30.6208 11.9756C30.5577 11.9756 30.484 11.9388 30.4734 11.8809C30.5545 11.7921 30.6236 11.6929 30.6787 11.5861C30.7924 11.3949 30.8571 11.1786 30.8672 10.9564C30.8773 10.7342 30.8325 10.5129 30.7367 10.3122C30.9156 10.3122 31.0999 9.99635 31.1209 9.73315C31.1158 9.55302 31.1481 9.37379 31.2157 9.20675C31.2298 9.17421 31.2317 9.13767 31.2211 9.10382C31.2105 9.06998 31.188 9.04111 31.1578 9.02251C31.1248 9.00954 31.0881 9.00937 31.055 9.02203C31.0219 9.03469 30.9947 9.05927 30.9788 9.09094C30.8788 9.31729 30.6261 9.19096 30.7314 8.9646C30.7452 8.93284 30.7469 8.89712 30.7363 8.86416C30.7256 8.83121 30.7033 8.80328 30.6735 8.78563C30.6576 8.77866 30.6405 8.7749 30.6231 8.77457C30.6058 8.77424 30.5885 8.77734 30.5724 8.7837C30.5562 8.79006 30.5415 8.79955 30.5291 8.81163C30.5166 8.8237 30.5066 8.83812 30.4998 8.85406C30.3998 9.06988 30.1576 8.94881 30.2576 8.73298C30.2718 8.70045 30.2737 8.6639 30.263 8.63006C30.2524 8.59622 30.2299 8.56734 30.1997 8.54874C30.1838 8.54177 30.1667 8.53802 30.1494 8.53769C30.132 8.53736 30.1148 8.54046 30.0986 8.54682C30.0825 8.55318 30.0678 8.56267 30.0553 8.57475C30.0428 8.58682 30.0329 8.60124 30.026 8.61718C29.9207 8.84353 29.6681 8.71719 29.7733 8.4961C29.7875 8.46357 29.7894 8.42702 29.7788 8.39318C29.7681 8.35934 29.7456 8.33046 29.7154 8.31186C29.6995 8.30489 29.6824 8.30114 29.6651 8.30081C29.6477 8.30047 29.6305 8.30358 29.6143 8.30994C29.5982 8.3163 29.5835 8.32579 29.571 8.33786C29.5585 8.34994 29.5486 8.36436 29.5417 8.3803C29.4775 8.5459 29.3725 8.69258 29.2364 8.80668C28.9995 8.85406 29.0627 9.12779 29.089 9.33308C29.0007 9.31065 28.9085 9.3076 28.8188 9.32415C28.7292 9.34071 28.6442 9.37647 28.5697 9.42898C28.4952 9.4815 28.4329 9.54952 28.3871 9.62837C28.3414 9.70723 28.3133 9.79505 28.3047 9.88581H28.252C27.8888 9.88581 27.5361 10.0858 27.5677 10.4122C27.5824 10.5061 27.6192 10.5951 27.675 10.672C27.7308 10.7488 27.8041 10.8114 27.8888 10.8544C27.9257 10.8544 27.8888 10.6491 28.0573 10.6333C28.1558 10.6365 28.2515 10.6673 28.3334 10.7222C28.4153 10.7771 28.4801 10.8539 28.5205 10.9439C28.5573 11.1334 28.4047 11.5966 28.9995 11.665C28.9995 11.665 28.9995 11.7545 28.9995 11.8546C28.839 11.8309 28.6758 11.8309 28.5152 11.8546C28.3051 11.8732 28.1027 11.9429 27.9256 12.0575C27.7486 12.1722 27.6022 12.3284 27.4993 12.5126C27.4801 12.6081 27.4801 12.7065 27.4993 12.8021C27.4993 12.881 27.5782 12.9758 27.5677 13.0758C27.5423 13.14 27.5027 13.1975 27.4519 13.2443C27.2648 13.4383 27.0148 13.5596 26.7465 13.5864C26.6115 13.5872 26.4783 13.5562 26.3575 13.4958C26.2368 13.4355 26.132 13.3475 26.0517 13.239C25.6727 12.7126 26.1622 11.8177 26.1569 11.4861C26.1306 10.5912 25.0304 11.1229 24.5777 11.3545C24.0734 11.6552 23.6348 12.0545 23.2881 12.5283C23.0794 12.7736 22.9025 13.0442 22.7617 13.3337C22.7617 13.3811 22.6985 13.3864 22.6511 13.3864C22.944 13.5266 23.2595 13.614 23.5828 13.6443C23.958 13.6873 24.3352 13.5835 24.6356 13.3548C24.6796 13.3214 24.7331 13.3029 24.7883 13.3022C24.8492 13.3046 24.9071 13.3289 24.9515 13.3706C24.9515 13.3706 25.0147 13.4232 25.0778 13.4759L25.2147 13.5917L25.2989 13.6548L25.5253 13.8338L25.5674 13.8707L25.8148 14.0602L26.0411 14.2286C26.0516 14.2357 26.0604 14.2451 26.0668 14.256C26.0732 14.2669 26.077 14.2792 26.078 14.2918C26.079 14.3121 26.0758 14.3325 26.0685 14.3515C26.0613 14.3705 26.0502 14.3878 26.0359 14.4023C26.0359 14.4023 25.9885 14.455 25.9201 14.5445C25.6902 14.8637 25.501 15.2103 25.3568 15.5762C25.4485 15.7895 25.5934 15.9756 25.7778 16.1167C25.9622 16.2577 26.1798 16.349 26.4096 16.3816C26.4808 16.3951 26.554 16.3938 26.6246 16.3777C26.6952 16.3616 26.7618 16.3311 26.8201 16.2881C26.8784 16.2451 26.9272 16.1906 26.9635 16.1279C26.9997 16.0651 27.0226 15.9956 27.0308 15.9236C27.0308 15.9236 27.0571 15.9605 27.0624 15.9605C27.0676 15.9605 27.3256 17.1238 27.5888 17.4502C27.3203 17.5765 26.8992 18.0135 27.1308 19.2031C26.8419 18.9821 26.5643 18.7466 26.2991 18.4977C26.2312 18.2709 26.1009 18.0678 25.9232 17.9114C25.7454 17.7551 25.5273 17.6518 25.2936 17.6134C25.4043 17.9644 25.5544 18.3017 25.7411 18.6188C25.9937 19.1179 26.1013 19.6777 26.0517 20.2349C26.3307 19.9454 26.2885 19.1505 26.2885 19.1505C26.2885 19.1505 26.3359 19.1505 26.3465 19.1505C26.357 19.1505 26.6834 19.6769 27.1624 19.8138C27.6403 20.7032 28.3267 21.4637 29.1627 22.0299C29.1627 22.2931 29.1627 22.9195 29.0153 22.9195C28.4889 23.0406 27.9941 22.6774 27.5203 22.6984L27.4414 22.6616C25.4147 21.6667 22.7459 23.7986 22.3037 24.2408C22.0668 24.4619 21.7773 24.1618 21.7773 24.1618C21.7135 24.0691 21.6264 23.995 21.5247 23.9469C21.423 23.8988 21.3103 23.8785 21.1982 23.8881C21.0877 23.8794 20.9769 23.9001 20.877 23.9482C20.7771 23.9963 20.6918 24.07 20.6297 24.1618C20.6297 24.1618 20.356 24.4619 20.1033 24.2408C19.6822 23.8513 17.266 21.9404 15.2867 22.5932C15.2867 22.4826 15.0183 22.4247 14.9446 22.3984C14.8063 22.3373 14.6741 22.2633 14.5498 22.1773C14.2848 22.1122 14.0115 22.0874 13.7391 22.1036C13.6297 22.0832 13.5246 22.0441 13.4285 21.9878C13.0908 21.8011 12.7909 21.5529 12.5442 21.2561L12.4178 21.0771C12.3201 20.9488 12.2452 20.8046 12.1968 20.6507C12.1668 20.2174 12.2241 19.7824 12.3652 19.3716C12.4073 19.0715 12.4021 19.0505 12.4284 18.7346C13.3291 18.3832 14.0603 17.6991 14.4708 16.8238C14.4971 16.7817 14.5761 16.6185 14.5761 16.6185C14.5761 16.6185 14.6866 16.6185 14.7498 16.6185C15.2762 16.6185 15.5868 16.3342 16.1395 16.4027C16.1395 16.4343 16.2132 16.6711 16.5659 16.8185C16.5544 17.1449 16.6136 17.47 16.7396 17.7713C16.7712 17.824 16.808 17.8661 16.8344 17.9082C17.0138 17.4876 17.1172 17.0384 17.1397 16.5816C17.1189 16.5477 17.1046 16.5102 17.0976 16.4711C17.0776 16.2682 17.0055 16.0738 16.8884 15.9069C16.7713 15.74 16.6131 15.6061 16.429 15.5183C16.2892 15.4659 16.1536 15.4025 16.0237 15.3288C15.8064 15.2009 15.6252 15.0197 15.4973 14.8024C15.5442 14.7542 15.5881 14.7032 15.6289 14.6497C15.9787 14.2082 16.2041 13.6811 16.2816 13.1232C16.5501 12.7494 17.2976 12.8968 17.5766 12.9495C17.6682 12.9557 17.7569 12.9846 17.8345 13.0337C17.9135 13.0863 17.9293 13.2179 18.0451 13.2653C18.1733 13.2943 18.3064 13.2943 18.4346 13.2653C18.4842 13.3335 18.5249 13.4078 18.5557 13.4864C18.5867 13.5396 18.6238 13.5891 18.6662 13.6338C19.0189 13.6011 19.362 13.501 19.6769 13.339C19.6571 13.3259 19.6394 13.31 19.6243 13.2916C19.4771 13.0744 19.2626 12.9116 19.0137 12.8284C18.7347 12.781 18.6768 12.5283 18.4136 12.4757C18.2866 12.4521 18.1563 12.4521 18.0293 12.4757C17.506 12.4746 16.9846 12.411 16.4764 12.2862C15.95 12.2494 15.95 12.6126 15.75 12.9126C15.6804 13.0309 15.5993 13.142 15.5078 13.2443C15.3657 13.3864 15.1973 13.3916 15.0235 13.5232L14.9393 13.3022C14.8901 13.1157 14.8119 12.9381 14.7077 12.7758C14.5816 12.5378 14.4059 12.3296 14.1925 12.1652C13.9791 12.0009 13.733 11.8842 13.4707 11.823C13.3891 11.7964 13.3138 11.7534 13.2496 11.6966C13.2331 11.6875 13.2194 11.6742 13.2098 11.658C13.2003 11.6418 13.1953 11.6233 13.1953 11.6045C13.1953 11.5857 13.2003 11.5672 13.2098 11.551C13.2194 11.5348 13.2331 11.5215 13.2496 11.5124C13.4285 11.4071 13.7391 11.444 13.9444 11.3439C14.4708 11.1071 14.2655 10.6754 14.0708 10.6386C13.7977 10.5876 13.5299 10.5118 13.2706 10.4122C13.1495 10.3332 12.939 9.94371 12.7442 9.84896C12.5494 9.75421 12.6021 9.41731 12.3968 9.32256C12.2682 9.32255 12.1422 9.35906 12.0336 9.42784C12.0336 9.34888 11.9757 8.93302 11.7493 8.79615C11.523 8.65929 11.5177 8.84879 11.523 8.94881C11.5282 9.04883 11.7756 9.15937 11.8177 9.55417L11.6967 9.63313C11.6787 9.42953 11.5825 9.24084 11.4282 9.10673C11.2598 9.00671 11.1966 9.15937 11.2071 9.25939C11.2176 9.3594 11.4229 9.45416 11.4914 9.78579L11.344 9.91739C11.0071 9.82264 10.9176 9.58576 10.8176 9.56996C10.7176 9.55417 10.5649 9.60155 10.6439 9.78053C10.7 9.86441 10.7722 9.93641 10.8562 9.99241C10.9402 10.0484 11.0344 10.0873 11.1334 10.1069L11.0439 10.2227C10.6491 10.1437 10.5544 9.88054 10.4649 9.85949C10.3754 9.83843 10.2175 9.89107 10.2964 10.07C10.3754 10.249 10.8544 10.4227 10.8965 10.4333C10.8359 10.5134 10.8043 10.6118 10.8071 10.7123C10.5017 10.6754 9.95955 10.8386 10.0648 11.2071C10.1648 11.2808 10.5228 10.9807 10.8544 11.1492C11.0703 11.4966 11.4229 11.5071 11.5019 11.5756C11.5809 11.644 11.644 11.8493 11.7019 12.0125C11.8218 12.3 11.9812 12.5693 12.1757 12.8126C12.3599 13.1021 12.5547 13.4074 12.7547 13.6654C12.7836 13.7444 12.7944 13.829 12.7863 13.9128C12.4335 14.3024 12.0419 14.6552 11.6177 14.9656C11.3387 15.2341 8.71724 17.266 8.38561 18.1556C8.30498 18.3853 8.26924 18.6283 8.28033 18.8715C8.12241 18.961 7.75392 19.1031 7.65917 18.9399C7.45914 18.6557 7.85394 18.4135 7.76445 18.1609C7.75436 18.1333 7.73846 18.1082 7.71783 18.0872C7.69721 18.0663 7.67233 18.0501 7.64488 18.0396C7.61744 18.0291 7.58806 18.0247 7.55874 18.0265C7.52942 18.0283 7.50084 18.0365 7.47493 18.0503C7.35392 18.1406 7.25742 18.2598 7.19421 18.3969C7.13101 18.5341 7.1031 18.6848 7.11304 18.8355C7.12298 18.9862 7.17045 19.132 7.25112 19.2596C7.3318 19.3873 7.44312 19.4927 7.57495 19.5663C8.02765 19.7611 8.10135 19.261 8.44351 19.4663C8.52773 19.5137 9.35945 20.2717 9.22258 20.8718C9.20653 20.9188 9.18718 20.9645 9.16468 21.0087C8.98044 21.2403 8.67513 21.4193 8.46983 21.6351C8.03818 21.9141 8.88042 23.6723 8.81199 24.5777C8.75935 24.9199 9.09098 24.883 9.29102 25.4199C9.19282 25.4103 9.09375 25.4244 9.00215 25.461C8.91054 25.4977 8.82908 25.5558 8.76462 25.6305C8.7046 25.7087 8.6747 25.8058 8.68039 25.9042C8.68039 26.0187 8.72587 26.1285 8.80682 26.2095C8.88777 26.2904 8.99756 26.3359 9.11204 26.3359C9.22652 26.3359 9.33631 26.2904 9.41726 26.2095C9.49821 26.1285 9.54369 26.0187 9.54369 25.9042C9.5465 25.8815 9.5465 25.8585 9.54369 25.8358C9.66369 25.838 9.78196 25.8649 9.89112 25.9148L10.2596 26.1043C9.75614 26.4651 9.17233 26.6978 8.5587 26.7821C7.94508 26.8665 7.32013 26.8001 6.73797 26.5886C6.73797 26.5886 5.76412 26.2622 6.04838 25.362C6.08379 25.2659 6.14817 25.1831 6.23262 25.1252C6.24728 25.2543 6.31264 25.3723 6.41432 25.4533C6.516 25.5342 6.64568 25.5715 6.77482 25.5568C6.90395 25.5421 7.02198 25.4768 7.10293 25.3751C7.18388 25.2734 7.22112 25.1437 7.20647 25.0146C7.20612 24.8841 7.15735 24.7585 7.0696 24.6619L7.00117 24.604C6.89375 24.5348 6.77168 24.4917 6.64466 24.478C6.51764 24.4643 6.38917 24.4804 6.26947 24.5251C6.13681 24.5658 6.01433 24.6344 5.91017 24.7261C5.80601 24.8178 5.72254 24.9306 5.66529 25.0571C5.60805 25.1835 5.57834 25.3207 5.57813 25.4595C5.57793 25.5983 5.60723 25.7355 5.66411 25.8621C5.66411 25.8621 5.01663 25.7095 4.77449 26.0095C4.71907 26.0817 4.69109 26.1713 4.69553 26.2622C4.70445 26.3361 4.72769 26.4077 4.76396 26.4727C4.79848 26.5236 4.8447 26.5655 4.89874 26.5948C4.95278 26.6241 5.01307 26.64 5.07454 26.6412C5.13028 26.6403 5.18512 26.627 5.23517 26.6025C5.28521 26.5779 5.32922 26.5426 5.36406 26.4991C5.36406 26.4675 5.46934 26.4201 5.58514 26.5412C7.03275 28.0835 9.3963 27.4466 10.707 26.4148C11.1665 25.9535 11.681 25.5504 12.2389 25.2146C12.5547 25.3515 12.8916 25.4568 13.2127 25.5726C13.1982 26.2743 13.4085 26.9624 13.8128 27.5361C13.7718 27.6254 13.7126 27.7051 13.6389 27.7702C13.5653 27.8353 13.4789 27.8843 13.3852 27.914C13.2915 27.9438 13.1927 27.9536 13.095 27.9429C12.9973 27.9322 12.9029 27.9012 12.8179 27.8519C12.7556 27.8076 12.7037 27.7503 12.6658 27.684C12.6279 27.6177 12.6049 27.5438 12.5984 27.4677C12.5919 27.3916 12.602 27.3149 12.6281 27.2431C12.6542 27.1713 12.6956 27.106 12.7495 27.0518C12.7495 27.0518 13.0127 26.8307 13.1285 27.1097C13.0587 27.1097 12.9917 27.1374 12.9424 27.1868C12.893 27.2361 12.8653 27.3031 12.8653 27.3729C12.8653 27.4427 12.893 27.5096 12.9424 27.559C12.9917 27.6084 13.0587 27.6361 13.1285 27.6361C13.1933 27.6349 13.2554 27.6093 13.3022 27.5644C13.349 27.5196 13.3772 27.4587 13.3812 27.3939C13.3947 27.2892 13.3826 27.1828 13.3459 27.0838C13.3092 26.9847 13.2491 26.8961 13.1706 26.8254C13.0941 26.7559 13.0023 26.7053 12.9026 26.6779C12.8029 26.6505 12.6981 26.6469 12.5968 26.6675C12.0704 26.757 11.7388 27.9309 12.8232 28.4152C12.8232 28.4152 13.676 28.81 14.1181 28.1625C14.1181 28.1625 14.1181 28.0677 14.276 28.2309C15.1762 29.1205 17.1923 28.8626 17.9977 28.2309C18.1338 28.143 18.2744 28.0622 18.4188 27.9888C18.4108 28.0762 18.4211 28.1644 18.4491 28.2476C18.4771 28.3309 18.5221 28.4073 18.5813 28.4722C18.6405 28.5371 18.7126 28.5889 18.7929 28.6243C18.8732 28.6598 18.9601 28.6781 19.0479 28.6781C19.1357 28.6781 19.2225 28.6598 19.3029 28.6243C19.3832 28.5889 19.4553 28.5371 19.5145 28.4722C19.5737 28.4073 19.6187 28.3309 19.6467 28.2476C19.6746 28.1644 19.6849 28.0762 19.6769 27.9888C19.6769 27.8385 19.6243 27.6931 19.5281 27.5776C19.4319 27.4622 19.2983 27.3842 19.1505 27.3571C18.9761 27.3273 18.7975 27.3334 18.6255 27.375C18.4535 27.4167 18.2918 27.493 18.1504 27.5992C17.9655 27.7251 17.772 27.8377 17.5713 27.9361C17.7869 27.5416 17.9312 27.1122 17.9977 26.6675C18.8768 26.7675 19.777 26.8307 20.7139 26.8518C20.7112 27.1494 20.6596 27.4446 20.5613 27.7256C20.5613 27.7256 20.2297 27.8677 20.2244 28.1046C20.2244 28.1046 20.1875 28.2783 20.4771 28.5204C20.5925 28.6465 20.6868 28.7905 20.7561 28.9468C20.7561 28.9468 20.7561 29.2048 21.1245 29.2048H21.2561C21.6088 29.2048 21.6299 28.9468 21.6299 28.9468C21.6959 28.79 21.7885 28.6458 21.9036 28.5204C22.1984 28.2783 22.1616 28.1046 22.1616 28.1046C22.1616 27.8677 21.8194 27.7256 21.8194 27.7256C21.7211 27.4446 21.6695 27.1494 21.6667 26.8518C22.6037 26.8518 23.5039 26.7675 24.383 26.6728C24.4495 27.1165 24.5958 27.5445 24.8146 27.9361C24.6121 27.8379 24.4168 27.7253 24.2303 27.5992C24.0889 27.493 23.9272 27.4167 23.7552 27.375C23.5832 27.3334 23.4046 27.3273 23.2302 27.3571C23.1091 27.3752 22.9957 27.4275 22.9033 27.5079C22.811 27.5883 22.7435 27.6934 22.709 27.8109C22.6744 27.9284 22.6741 28.0533 22.7081 28.1709C22.7422 28.2885 22.8092 28.3939 22.9012 28.4747C22.9931 28.5555 23.1063 28.6084 23.2273 28.627C23.3483 28.6456 23.4722 28.6293 23.5842 28.5799C23.6962 28.5305 23.7918 28.45 23.8596 28.3481C23.9275 28.2462 23.9648 28.127 23.9671 28.0046C24.1882 28.1151 24.3935 28.2467 24.3935 28.2467C25.1884 28.8521 27.2098 29.11 28.1152 28.2467C28.2784 28.0835 28.2731 28.1783 28.2731 28.1783C28.71 28.8258 29.568 28.431 29.568 28.431C30.6208 27.9467 30.3366 26.7728 29.7891 26.6833C29.6878 26.6627 29.5831 26.6663 29.4834 26.6937C29.3837 26.7211 29.2919 26.7717 29.2153 26.8412C29.1363 26.9113 29.0761 27 29.0403 27.0993C29.0044 27.1986 28.994 27.3054 29.0101 27.4097C29.0127 27.474 29.0398 27.5348 29.0858 27.5798C29.1317 27.6248 29.1931 27.6506 29.2575 27.6519C29.3273 27.6519 29.3942 27.6242 29.4436 27.5748C29.4929 27.5254 29.5207 27.4585 29.5207 27.3887C29.5207 27.3189 29.4929 27.2519 29.4436 27.2026C29.3942 27.1532 29.3273 27.1255 29.2575 27.1255C29.368 26.8465 29.6312 27.0676 29.6312 27.0676C29.6851 27.1218 29.7265 27.1871 29.7526 27.2589C29.7787 27.3307 29.7888 27.4074 29.7823 27.4835C29.7758 27.5596 29.7528 27.6334 29.7149 27.6998C29.677 27.7661 29.6251 27.8234 29.5628 27.8677C29.4778 27.917 29.3834 27.948 29.2857 27.9587C29.188 27.9694 29.0891 27.9596 28.9955 27.9298C28.9018 27.9001 28.8154 27.8511 28.7417 27.786C28.6681 27.7209 28.6089 27.6412 28.5679 27.5519C28.9904 26.9809 29.2158 26.2881 29.2101 25.5779C29.5365 25.4568 29.8734 25.3568 30.1892 25.2146C30.7459 25.552 31.2602 25.955 31.721 26.4148C33.0265 27.4676 35.4058 28.0835 36.8429 26.5412C36.9587 26.4201 37.0377 26.4675 37.064 26.4991C37.0981 26.5469 37.1431 26.5858 37.1953 26.6127C37.2475 26.6396 37.3053 26.6537 37.3641 26.6537C37.4228 26.6537 37.4806 26.6396 37.5328 26.6127C37.585 26.5858 37.63 26.5469 37.6641 26.4991C37.7004 26.434 37.7236 26.3625 37.7325 26.2885C37.7366 26.236 37.7298 26.1832 37.7126 26.1333C37.6954 26.0835 37.6682 26.0378 37.6325 25.999Z" fill="white"></path><path d="M52.3293 15.6973L52.2082 10.6701H52.1713C52.0713 11.3071 51.966 11.765 51.8871 12.1072L51.0554 15.6973H49.3867L48.5918 12.1072C48.5128 11.765 48.4128 11.3071 48.297 10.6701H48.2654L48.1865 15.6973H47.1337L47.3548 9.74365H49.3024C49.3024 9.74365 49.9447 12.7441 50.2816 14.6655C50.6711 12.7494 51.4291 9.74365 51.4291 9.74365H53.3399L53.5663 15.6973H52.3293Z" fill="white"></path><path d="M54.8986 9.6123H56.0567V10.6651H54.8986V9.6123ZM54.9302 15.6975V12.2075L54.4406 12.0969V11.3652H56.0567V15.687L54.9302 15.6975Z" fill="white"></path><path d="M59.7413 15.6975V13.1339C59.7413 12.4812 59.4991 12.1706 58.978 12.1706C58.71 12.1828 58.4516 12.2744 58.2358 12.4338V15.6975H57.104V11.3652H57.8778L58.0515 11.8601C58.2199 11.6717 58.4271 11.5219 58.6588 11.4211C58.8905 11.3202 59.1412 11.2706 59.3938 11.2757C60.4467 11.2757 60.8888 11.9232 60.8888 13.0129V15.687L59.7413 15.6975Z" fill="white"></path><path d="M62.0994 9.6123H63.2417V10.6651H62.0994V9.6123ZM62.1363 15.6975V12.2075L61.6415 12.0969V11.3652H63.2575V15.687L62.1363 15.6975Z" fill="white"></path><path d="M65.2641 12.513C65.2641 13.1868 67.1013 12.9815 67.1013 14.3922C67.1013 15.1766 66.5275 15.7872 65.4326 15.7872C64.9876 15.7896 64.5494 15.6791 64.1587 15.4661L64.3903 14.666C64.6916 14.8563 65.0394 14.9601 65.3957 14.966C65.7695 14.966 66.0169 14.7555 66.0169 14.487C66.0169 13.7132 64.2113 13.9606 64.2113 12.4972C64.2113 11.8602 64.6851 11.2917 65.8274 11.2917C66.2353 11.287 66.6406 11.3584 67.0223 11.5023L66.8644 12.3393C66.5435 12.1942 66.1954 12.1188 65.8432 12.1182C65.4589 12.1182 65.2641 12.2656 65.2641 12.513Z" fill="white"></path><path d="M69.553 15.7864C68.8003 15.7864 68.3107 15.4232 68.3107 14.3388V12.1963H67.679V11.3646H68.3107V10.6277L69.4267 10.2539V11.3646H70.5584V12.1858H69.4267V14.2914C69.4267 14.5915 69.5688 14.7862 69.8741 14.7862C70.0987 14.7802 70.3195 14.7264 70.5216 14.6283L70.6953 15.4706C70.3457 15.664 69.9526 15.7654 69.553 15.7653" fill="white"></path><path d="M72.9704 12.1333C72.4071 12.1333 72.1755 12.6597 72.1755 13.1861H73.7231C73.7231 12.6334 73.56 12.1333 72.9704 12.1333ZM72.1755 13.8441C72.1616 13.9891 72.1806 14.1353 72.231 14.2719C72.2814 14.4084 72.362 14.5319 72.4667 14.6331C72.5714 14.7342 72.6976 14.8105 72.8358 14.8562C72.974 14.9019 73.1208 14.9158 73.2652 14.8969C73.7037 14.8751 74.131 14.7507 74.5128 14.5337L74.7286 15.3444C74.2442 15.6115 73.7024 15.7578 73.1494 15.7708C71.8439 15.7708 71.0438 14.939 71.0438 13.5125C71.0438 12.1807 71.6754 11.27 73.0336 11.27C74.3127 11.27 74.8128 12.2439 74.8128 13.3283V13.8547L72.1755 13.8441Z" fill="white"></path><path d="M78.0701 12.339C77.8994 12.2876 77.7219 12.2628 77.5437 12.2653C77.2641 12.2705 76.9954 12.375 76.7857 12.56V15.7185H75.6592V11.3651H76.4435L76.5646 11.9494C76.654 11.7542 76.7969 11.5883 76.9767 11.471C77.1565 11.3536 77.3659 11.2895 77.5805 11.2862C77.7458 11.2854 77.9104 11.3066 78.0701 11.3493V12.339Z" fill="white"></path><path d="M79.0656 9.6123H80.2079V10.6651H79.0656V9.6123ZM79.1024 15.6975V12.2075L78.6076 12.0969V11.3652H80.2237V15.687L79.1024 15.6975Z" fill="white"></path><path d="M83.9029 13.5286C83.9029 12.4758 83.5976 12.1284 83.0712 12.1284C82.5448 12.1284 82.25 12.4969 82.25 13.5286C82.25 14.5604 82.5185 14.9394 83.0712 14.9394C83.624 14.9394 83.9029 14.5604 83.9029 13.5286ZM85.061 13.5286C85.061 15.0025 84.3346 15.7869 83.0712 15.7869C81.8079 15.7869 81.0814 15.0078 81.0814 13.5286C81.0814 12.26 81.771 11.2861 83.0712 11.2861C84.3714 11.2861 85.061 12.26 85.061 13.5286Z" fill="white"></path><path d="M90.4462 12.3654C90.2137 12.2272 89.9481 12.1545 89.6776 12.1548C89.1512 12.1548 88.8038 12.5233 88.8038 13.5287C88.8038 14.5342 89.1249 14.9448 89.6619 14.9448C89.8108 14.9399 89.9572 14.9048 90.092 14.8414C90.2269 14.7781 90.3474 14.6878 90.4462 14.5763V12.3654ZM90.5515 11.7127C90.4776 11.4543 90.4422 11.1865 90.4462 10.9178V9.6123H91.5727V15.6975H90.6568L90.5252 15.2185C90.3974 15.3973 90.2282 15.5425 90.0319 15.6415C89.8357 15.7405 89.6184 15.7905 89.3987 15.787C88.4406 15.787 87.6721 15.0816 87.6721 13.5393C87.6721 12.1075 88.4669 11.2863 89.4934 11.2863C89.6892 11.2778 89.8845 11.3115 90.0661 11.3851C90.2478 11.4586 90.4115 11.5704 90.5462 11.7127" fill="white"></path><path d="M94.3571 12.1333C93.7938 12.1333 93.5622 12.6597 93.5622 13.1861H95.1098C95.1098 12.6334 94.9414 12.1333 94.3571 12.1333ZM93.5622 13.8441C93.5483 13.9891 93.5673 14.1353 93.6177 14.2719C93.6681 14.4084 93.7486 14.5319 93.8534 14.6331C93.9581 14.7342 94.0842 14.8105 94.2225 14.8562C94.3607 14.9019 94.5075 14.9158 94.6519 14.8969C95.0888 14.8757 95.5146 14.7512 95.8942 14.5337L96.11 15.3444C95.6261 15.6129 95.084 15.7592 94.5308 15.7708C93.2253 15.7708 92.4252 14.939 92.4252 13.5125C92.4252 12.1807 93.0569 11.27 94.415 11.27C95.6941 11.27 96.1995 12.2439 96.1995 13.3283V13.8547L93.5622 13.8441Z" fill="white"></path><path d="M49.0664 19.0661L48.4295 21.7297H50.0087L49.4139 19.0661H49.0664ZM47.9084 23.9985H46.8029L48.3821 18.0449H50.2666L51.8037 23.9985H50.5298L50.2298 22.6562H48.2189L47.9084 23.9985Z" fill="white"></path><path d="M54.8722 21.0611C54.8722 20.5347 54.4458 20.4136 54.1195 20.4136C53.7931 20.4136 53.3562 20.5452 53.3562 21.0611C53.3562 21.5769 53.7615 21.7401 54.1195 21.7401C54.4774 21.7401 54.8722 21.6032 54.8722 21.0611ZM53.951 23.7562C53.8659 23.7534 53.781 23.7678 53.7016 23.7986C53.6221 23.8294 53.5497 23.876 53.4888 23.9355C53.4278 23.995 53.3795 24.0662 53.3467 24.1449C53.314 24.2235 53.2975 24.308 53.2983 24.3932C53.3046 24.4905 53.3309 24.5856 53.3756 24.6723C53.4202 24.7591 53.4823 24.8357 53.5578 24.8974C53.6334 24.9591 53.7208 25.0047 53.8147 25.0311C53.9087 25.0576 54.007 25.0644 54.1037 25.0512C54.6301 25.0512 54.9459 24.7827 54.9459 24.3353C54.9459 23.8878 54.6195 23.8089 53.9563 23.7615L53.951 23.7562ZM56.2619 19.6871V20.5452C55.9913 20.5302 55.724 20.4788 55.4671 20.3925C55.6825 20.5627 55.8315 20.8029 55.8882 21.0716C55.8882 22.1244 54.8354 22.556 54.1405 22.556C53.9628 22.5482 53.7863 22.5217 53.6141 22.4771C53.4825 22.5192 53.4036 22.5982 53.4036 22.714C53.4036 23.1772 56.0935 22.635 56.0935 24.2563C56.0935 25.267 55.1459 25.8355 54.0826 25.8355C53.1877 25.8355 52.2928 25.4407 52.2928 24.6459C52.2928 24.0879 52.7245 23.7983 53.4141 23.6931C52.8877 23.6299 52.3613 23.4614 52.3613 22.9614C52.3613 22.5981 52.6876 22.3349 53.1614 22.2981C52.9231 22.1934 52.721 22.0206 52.5805 21.8015C52.4401 21.5823 52.3675 21.3266 52.3718 21.0663C52.3718 19.924 53.4246 19.5977 54.1195 19.5977C54.5774 19.5977 55.5302 19.6766 56.2619 19.6819" fill="white"></path><path d="M59.4054 20.6453C59.2345 20.5948 59.0571 20.57 58.879 20.5716C58.5999 20.5795 58.3321 20.6837 58.1209 20.8664V24.0248H56.9944V19.682H57.784L57.9051 20.2663H57.9314C58.0195 20.0711 58.1613 19.9051 58.3403 19.7876C58.5193 19.6702 58.7281 19.6061 58.9421 19.603C59.1074 19.6023 59.272 19.6235 59.4317 19.6662L59.4054 20.6453Z" fill="white"></path><path d="M60.3985 17.9189H61.5355V18.9718H60.3985V17.9189ZM60.4301 23.9989V20.5141L59.9352 20.4088V19.6824H61.5566V23.9989H60.4301Z" fill="white"></path><path d="M65.9592 23.7142C65.5111 23.9521 65.0135 24.0819 64.5063 24.0932C63.243 24.0932 62.4797 23.3615 62.4797 21.8454C62.4797 20.4347 63.243 19.5977 64.4958 19.5977C65.0025 19.5811 65.5043 19.7011 65.9487 19.9451L65.6539 20.7347C65.3339 20.5511 64.9699 20.4583 64.6011 20.4663C64.0168 20.4663 63.643 20.8716 63.643 21.8454C63.643 22.8193 63.9957 23.2193 64.6116 23.2193C65.0154 23.208 65.4098 23.0958 65.7592 22.893L65.9592 23.7142Z" fill="white"></path><path d="M69.6689 23.9989L69.4952 23.4725C69.3365 23.672 69.1335 23.832 68.9024 23.9398C68.6713 24.0476 68.4184 24.1002 68.1634 24.0937C67.1106 24.0937 66.6263 23.4936 66.6263 22.3039V19.6719H67.7476V22.3039C67.7476 22.9672 67.9845 23.204 68.4951 23.204C68.7675 23.1984 69.0318 23.1103 69.2531 22.9514V19.6824H70.4059V23.9989H69.6689Z" fill="white"></path><path d="M71.3596 22.8566V17.9189H72.4755V22.7934C72.4755 23.1566 72.6966 23.2093 73.1599 23.2093V23.9989C72.9556 24.0431 72.7476 24.0677 72.5387 24.0726C71.6754 24.0726 71.3596 23.6041 71.3596 22.8355" fill="white"></path><path d="M75.4601 24.0936C74.7074 24.0936 74.2178 23.7304 74.2178 22.646V20.5036H73.5861V19.6824H74.2178V18.9349L75.3338 18.5664V19.6824H76.4655V20.5036H75.3338V22.6092C75.3338 22.9092 75.4812 23.104 75.7812 23.104C76.0058 23.098 76.2266 23.0442 76.4287 22.9461L76.6024 23.7936C76.2515 23.9833 75.859 24.0828 75.4601 24.0831" fill="white"></path><path d="M80.2715 23.9989L80.0978 23.4725C79.9404 23.6709 79.7392 23.8302 79.51 23.938C79.2808 24.0457 79.0298 24.099 78.7766 24.0937C77.7238 24.0937 77.2342 23.4936 77.2342 22.3039V19.6719H78.3607V22.3039C78.3607 22.9672 78.5923 23.204 79.1029 23.204C79.3768 23.1975 79.6425 23.1095 79.8662 22.9514V19.6824H81.0138V23.9989H80.2715Z" fill="white"></path><path d="M84.3766 20.6453C84.2059 20.594 84.0284 20.5691 83.8502 20.5716C83.5693 20.5788 83.2996 20.6829 83.0869 20.8664V24.0248H81.9656V19.682H82.75L82.871 20.2663H82.9026C82.9917 20.0719 83.1338 19.9066 83.3125 19.7892C83.4913 19.6719 83.6995 19.6074 83.9133 19.6031C84.0803 19.602 84.2467 19.6233 84.4081 19.6662L84.3766 20.6453Z" fill="white"></path><path d="M87.266 22.1191H86.5869C86.1184 22.1191 85.9026 22.3455 85.9026 22.6455C85.8916 22.7313 85.9002 22.8185 85.928 22.9005C85.9558 22.9824 86.0019 23.0569 86.0628 23.1183C86.1237 23.1798 86.1978 23.2265 86.2796 23.2549C86.3613 23.2834 86.4484 23.2928 86.5343 23.2825C86.8108 23.2697 87.0754 23.1661 87.287 22.9877L87.266 22.1191ZM87.5818 24.0036L87.4292 23.4772C87.2851 23.668 87.0979 23.8218 86.8828 23.9262C86.6678 24.0305 86.4311 24.0823 86.1921 24.0773C86.0053 24.0901 85.8179 24.0633 85.6422 23.9987C85.4664 23.9342 85.3063 23.8333 85.1722 23.7026C85.0381 23.572 84.933 23.4146 84.8638 23.2406C84.7947 23.0666 84.763 22.88 84.7708 22.6929C84.7708 21.8875 85.3551 21.4137 86.35 21.4137H87.2449V21.2084C87.2584 21.1078 87.2482 21.0054 87.2152 20.9093C87.1821 20.8133 87.1271 20.7263 87.0546 20.6552C86.982 20.5842 86.8938 20.5311 86.7971 20.5001C86.7004 20.4691 86.5978 20.4611 86.4974 20.4768C86.0585 20.4795 85.6255 20.5783 85.2288 20.7663L84.9445 19.9503C85.47 19.7174 86.0385 19.5973 86.6132 19.5977C87.8134 19.5977 88.3346 20.1609 88.3346 21.2611V23.9984L87.5818 24.0036Z" fill="white"></path><path d="M187.267 34.6003C186.63 34.5529 185.983 34.5266 185.335 34.5266C181.903 34.5127 178.501 35.1752 175.324 36.4761C172.147 37.777 169.257 39.691 166.82 42.1086C164.383 44.5263 162.446 47.4003 161.119 50.5666C159.793 53.733 159.103 57.1295 159.089 60.5624C159.088 61.3993 159.131 62.2356 159.215 63.0681C174.623 62.9734 187.115 50.2923 187.267 34.6003Z" fill="#62A731"></path><path d="M158.747 54.8728C155.362 43.0866 145.213 34.5273 133.227 34.5273C132.406 34.5273 131.6 34.5695 130.806 34.6484C130.99 50.1194 143.155 62.6583 158.278 63.0741C158.2 62.2266 158.152 61.3686 158.152 60.5C158.154 58.6139 158.353 56.7331 158.747 54.8886" fill="#80BA27"></path><path d="M131.743 70.1963V71.5544H133.306L133.233 72.4072H131.743V74.3443H130.795V69.3804H133.785V70.1963H131.743Z" fill="#251F20"></path><path d="M136.517 74.3438L136.374 73.9068C136.242 74.0726 136.074 74.2061 135.882 74.2973C135.691 74.3885 135.481 74.435 135.269 74.4332C134.39 74.4332 133.985 73.9332 133.985 72.9435V70.7432H134.922V72.9541C134.922 73.4805 135.116 73.7068 135.543 73.7068C135.772 73.7004 135.994 73.6252 136.18 73.491V70.7432H137.122V74.3438H136.517Z" fill="#251F20"></path><path d="M140.207 74.3442V72.2017C140.207 71.6753 140.007 71.4068 139.576 71.4068C139.352 71.4154 139.136 71.4905 138.955 71.6227V74.3442H138.012V70.7436H138.66L138.802 71.1542C138.943 70.9972 139.116 70.8726 139.309 70.789C139.503 70.7054 139.712 70.6647 139.923 70.6699C140.818 70.6699 141.171 71.1963 141.171 72.1175V74.3442H140.207Z" fill="#251F20"></path><path d="M144.203 71.5646C144.011 71.4486 143.791 71.3884 143.566 71.3909C143.119 71.3909 142.835 71.7015 142.835 72.5332C142.835 73.3649 143.103 73.7176 143.551 73.7176C143.674 73.7135 143.796 73.6843 143.908 73.6319C144.02 73.5794 144.121 73.5047 144.203 73.4123V71.5646ZM144.293 71.0382C144.23 70.8229 144.2 70.5993 144.203 70.375V69.2695H145.146V74.344H144.377L144.272 73.944C144.166 74.0934 144.025 74.2147 143.862 74.2973C143.699 74.3799 143.518 74.4212 143.335 74.4177C142.529 74.4177 141.892 73.8334 141.892 72.5438C141.892 71.3541 142.556 70.6698 143.414 70.6698C143.577 70.6616 143.74 70.6888 143.892 70.7497C144.044 70.8106 144.18 70.9036 144.293 71.0225" fill="#251F20"></path><path d="M148.093 72.7702H147.509C147.12 72.7702 146.935 72.9597 146.935 73.2334C146.927 73.3046 146.935 73.3768 146.958 73.4445C146.982 73.5122 147.02 73.5737 147.071 73.6244C147.121 73.6751 147.183 73.7136 147.251 73.7371C147.318 73.7605 147.391 73.7683 147.462 73.7598C147.691 73.7512 147.911 73.668 148.088 73.523L148.093 72.7702ZM148.362 74.3494L148.23 73.923C148.108 74.0855 147.949 74.2158 147.766 74.303C147.582 74.3901 147.38 74.4313 147.177 74.4231C147.022 74.4336 146.866 74.4112 146.72 74.3574C146.573 74.3036 146.44 74.2196 146.328 74.1108C146.216 74.0021 146.129 73.8711 146.071 73.7262C146.013 73.5814 145.987 73.4261 145.993 73.2703C145.993 72.6018 146.477 72.2175 147.33 72.2175H148.072V72.0332C148.072 71.57 147.814 71.4279 147.451 71.4279C147.087 71.4311 146.729 71.5118 146.398 71.6648L146.162 70.9857C146.601 70.7925 147.076 70.6921 147.556 70.6909C148.562 70.6909 148.994 71.1594 148.994 72.0806V74.3652L148.362 74.3494Z" fill="#251F20"></path><path d="M152.825 74.1022C152.452 74.3012 152.038 74.4094 151.615 74.4181C150.562 74.4181 149.925 73.8075 149.925 72.5441C149.925 71.365 150.562 70.6701 151.604 70.6701C152.027 70.6567 152.446 70.7586 152.815 70.9649L152.573 71.6176C152.301 71.4666 151.994 71.3903 151.683 71.3965C151.194 71.3965 150.883 71.7334 150.883 72.5441C150.883 73.3548 151.183 73.6917 151.694 73.6917C152.031 73.6805 152.36 73.5865 152.652 73.4179L152.825 74.1022Z" fill="#251F20"></path><path d="M153.899 69.2695H154.852V70.1434H153.899V69.2695ZM153.931 74.3441V71.433L153.515 71.3436V70.7435H154.868V74.3441H153.931Z" fill="#251F20"></path><path d="M158.115 72.5333C158.115 71.67 157.862 71.3647 157.425 71.3647C156.988 71.3647 156.741 71.6752 156.741 72.5333C156.741 73.3913 156.962 73.7124 157.425 73.7124C157.888 73.7124 158.115 73.3966 158.115 72.5333ZM156.536 70.1802L156.441 69.6538L158.267 69.1274L158.389 69.8381L156.536 70.1802ZM159.073 72.5333C159.073 73.7598 158.462 74.4178 157.409 74.4178C156.357 74.4178 155.746 73.7703 155.746 72.5333C155.746 71.4805 156.33 70.6698 157.409 70.6698C158.489 70.6698 159.073 71.4752 159.073 72.5333Z" fill="#251F20"></path><path d="M162.175 74.344V72.2016C162.175 71.6752 161.97 71.4067 161.538 71.4067C161.314 71.4146 161.098 71.4899 160.917 71.6225V74.344H159.969V70.7435H160.622L160.764 71.1541C160.905 70.9976 161.079 70.8734 161.272 70.7898C161.466 70.7063 161.675 70.6653 161.886 70.6698C162.78 70.6698 163.133 71.1962 163.133 72.1174V74.344H162.175Z" fill="#251F20"></path><path d="M166.816 73.3541C166.885 73.4582 166.977 73.5449 167.084 73.6071C167.192 73.6692 167.313 73.7052 167.438 73.712C167.859 73.712 168.148 73.4015 168.148 72.5329C168.148 71.6643 167.885 71.3748 167.459 71.3748C167.337 71.3787 167.218 71.4068 167.108 71.4574C166.998 71.508 166.898 71.5801 166.816 71.6696V73.3541ZM166.816 74.6596V75.744H165.853V70.7431H166.669L166.743 71.1327C166.853 70.9902 166.994 70.8745 167.156 70.7943C167.317 70.7141 167.494 70.6714 167.675 70.6694C168.501 70.6694 169.096 71.2695 169.096 72.5329C169.096 73.7963 168.369 74.4174 167.553 74.4174C167.386 74.4269 167.219 74.3937 167.068 74.3209C166.917 74.2482 166.787 74.1383 166.69 74.0016C166.759 74.215 166.801 74.4359 166.816 74.6596Z" fill="#251F20"></path><path d="M171.796 72.7702H171.212C170.827 72.7702 170.643 72.9597 170.643 73.2334C170.635 73.3046 170.643 73.3768 170.666 73.4445C170.689 73.5122 170.728 73.5737 170.779 73.6244C170.829 73.6751 170.891 73.7136 170.959 73.7371C171.026 73.7605 171.098 73.7683 171.17 73.7598C171.399 73.7512 171.619 73.668 171.796 73.523V72.7702ZM172.064 74.3494L171.933 73.923C171.811 74.0858 171.652 74.2164 171.468 74.3036C171.285 74.3907 171.083 74.4318 170.88 74.4231C170.725 74.4336 170.569 74.4113 170.423 74.3574C170.277 74.3036 170.144 74.2195 170.032 74.1106C169.921 74.0018 169.834 73.8707 169.777 73.7259C169.72 73.5811 169.694 73.4258 169.701 73.2703C169.701 72.6018 170.185 72.2175 171.033 72.2175H171.775V72.0332C171.775 71.57 171.517 71.4279 171.154 71.4279C170.79 71.4288 170.43 71.5096 170.101 71.6648L169.859 70.9857C170.297 70.7919 170.77 70.6915 171.249 70.6909C172.254 70.6909 172.686 71.1594 172.686 72.0806V74.3652L172.064 74.3494Z" fill="#251F20"></path><path d="M175.724 71.5434C175.58 71.5033 175.431 71.4838 175.282 71.4855C175.049 71.4904 174.826 71.576 174.65 71.7276V74.3596H173.708V70.7432H174.366L174.466 71.2275C174.541 71.0655 174.661 70.9278 174.811 70.8302C174.96 70.7325 175.134 70.6787 175.313 70.6748C175.452 70.6747 175.59 70.6924 175.724 70.7274V71.5434Z" fill="#251F20"></path><path d="M178.318 72.7702H177.734C177.345 72.7702 177.166 72.9597 177.166 73.2334C177.157 73.3046 177.165 73.3768 177.188 73.4445C177.212 73.5122 177.25 73.5737 177.301 73.6244C177.352 73.6751 177.413 73.7136 177.481 73.7371C177.549 73.7605 177.621 73.7683 177.692 73.7598C177.921 73.7512 178.141 73.668 178.318 73.523V72.7702ZM178.587 74.3494L178.455 73.923C178.334 74.0858 178.174 74.2164 177.991 74.3036C177.807 74.3907 177.605 74.4318 177.402 74.4231C177.247 74.4336 177.091 74.4112 176.945 74.3574C176.798 74.3036 176.665 74.2196 176.553 74.1108C176.441 74.0021 176.354 73.8711 176.296 73.7262C176.238 73.5814 176.212 73.4261 176.218 73.2703C176.218 72.6018 176.702 72.2175 177.555 72.2175H178.297V72.0332C178.297 71.57 178.039 71.4279 177.676 71.4279C177.312 71.4303 176.953 71.5111 176.623 71.6648L176.381 70.9857C176.821 70.7925 177.296 70.6921 177.776 70.6909C178.776 70.6909 179.208 71.1594 179.208 72.0806V74.3652L178.587 74.3494Z" fill="#251F20"></path><path d="M182.019 73.3913V69.2695H182.951V73.3386C182.951 73.6387 183.13 73.686 183.519 73.686V74.3598C183.346 74.3949 183.17 74.4143 182.993 74.4177C182.272 74.4177 182.014 74.0282 182.014 73.3913" fill="#251F20"></path><path d="M186.231 72.7702H185.647C185.257 72.7702 185.078 72.9597 185.078 73.2334C185.07 73.3046 185.077 73.3768 185.101 73.4445C185.124 73.5122 185.163 73.5737 185.214 73.6244C185.264 73.6751 185.326 73.7136 185.393 73.7371C185.461 73.7605 185.533 73.7683 185.604 73.7598C185.834 73.7512 186.053 73.668 186.231 73.523V72.7702ZM186.499 74.3494L186.373 73.923C186.251 74.0848 186.091 74.2147 185.908 74.3017C185.724 74.3888 185.523 74.4304 185.32 74.4231C185.165 74.4336 185.009 74.4113 184.863 74.3574C184.717 74.3036 184.584 74.2195 184.473 74.1106C184.361 74.0018 184.274 73.8707 184.217 73.7259C184.16 73.5811 184.134 73.4258 184.141 73.2703C184.141 72.6018 184.62 72.2175 185.473 72.2175H186.215V72.0332C186.215 71.57 185.957 71.4279 185.594 71.4279C185.23 71.4296 184.871 71.5104 184.541 71.6648L184.304 70.9857C184.742 70.7919 185.215 70.6915 185.694 70.6909C186.694 70.6909 187.126 71.1594 187.126 72.0806V74.3652L186.499 74.3494Z" fill="#251F20"></path><path d="M131.71 75.9126H130.768V80.8766H131.71V75.9126Z" fill="#251F20"></path><path d="M134.769 80.8819V78.7447C134.769 78.2183 134.569 77.9445 134.138 77.9445C133.913 77.955 133.697 78.0319 133.516 78.1656V80.8871H132.569V77.2813H133.216L133.369 77.6919C133.508 77.5344 133.68 77.4095 133.873 77.3258C134.066 77.2421 134.275 77.2018 134.485 77.2076C135.375 77.2076 135.727 77.734 135.727 78.6552V80.8871L134.769 80.8819Z" fill="#251F20"></path><path d="M138.622 80.8818V78.7446C138.622 78.2182 138.417 77.9445 137.985 77.9445C137.763 77.955 137.548 78.032 137.37 78.1656V80.8871H136.422V77.2812H137.075L137.217 77.6918C137.357 77.5345 137.531 77.4098 137.724 77.3261C137.918 77.2425 138.127 77.202 138.338 77.2075C139.228 77.2075 139.58 77.7339 139.58 78.6551V80.8871L138.622 80.8818Z" fill="#251F20"></path><path d="M142.491 79.0656C142.491 78.2023 142.233 77.9023 141.791 77.9023C141.349 77.9023 141.112 78.2128 141.112 79.0656C141.112 79.9184 141.333 80.2448 141.791 80.2448C142.249 80.2448 142.491 79.9289 142.491 79.0656ZM143.455 79.0656C143.455 80.2974 142.849 80.9554 141.791 80.9554C140.733 80.9554 140.138 80.3079 140.138 79.0656C140.138 78.0128 140.712 77.2021 141.791 77.2021C142.87 77.2021 143.455 78.0128 143.455 79.0656Z" fill="#251F20"></path><path d="M146.151 80.8765H144.777L143.719 77.2759H144.777L145.519 80.2922H145.551L146.288 77.2759H147.235L146.151 80.8765Z" fill="#251F20"></path><path d="M149.551 79.3022H148.966C148.577 79.3022 148.398 79.497 148.398 79.7707C148.388 79.8421 148.395 79.9147 148.418 79.9829C148.441 80.0511 148.48 80.1131 148.531 80.164C148.582 80.2149 148.644 80.2534 148.712 80.2765C148.78 80.2996 148.853 80.3067 148.924 80.2971C149.156 80.2881 149.378 80.203 149.556 80.055L149.551 79.3022ZM149.819 80.8814L149.687 80.455C149.564 80.6158 149.404 80.745 149.221 80.832C149.038 80.9189 148.837 80.9611 148.635 80.9551C148.479 80.9666 148.322 80.9447 148.175 80.8908C148.028 80.837 147.895 80.7524 147.783 80.6428C147.671 80.5332 147.585 80.4011 147.528 80.2553C147.472 80.1094 147.447 79.9532 147.455 79.797C147.455 79.1285 147.935 78.7442 148.787 78.7442H149.53V78.56C149.53 78.0968 149.272 77.9494 148.903 77.9494C148.539 77.9539 148.18 78.0365 147.85 78.1915L147.613 77.5072C148.054 77.316 148.528 77.2157 149.008 77.2124C150.009 77.2124 150.44 77.6862 150.44 78.6021V80.892L149.819 80.8814Z" fill="#251F20"></path><path d="M154.019 80.6396C153.645 80.8361 153.231 80.9441 152.809 80.9555C151.756 80.9555 151.124 80.3448 151.124 79.0815C151.124 77.9023 151.756 77.2022 152.803 77.2022C153.226 77.1896 153.644 77.2915 154.014 77.497L153.767 78.1497C153.497 77.9986 153.192 77.9223 152.882 77.9286C152.393 77.9286 152.077 78.2708 152.077 79.0815C152.077 79.8921 152.377 80.2238 152.888 80.2238C153.226 80.2148 153.557 80.1226 153.851 79.9553L154.019 80.6396Z" fill="#251F20"></path><path d="M154.837 75.8071H155.789V76.681H154.837V75.8071ZM154.868 80.8816V77.9706L154.452 77.8812V77.2758H155.805V80.8816H154.868Z" fill="#251F20"></path><path d="M158.794 79.066C158.794 78.2027 158.542 77.9027 158.105 77.9027C157.668 77.9027 157.415 78.2133 157.415 79.066C157.415 79.9188 157.642 80.2452 158.105 80.2452C158.568 80.2452 158.794 79.9293 158.794 79.066ZM157.215 76.7183L157.126 76.1656L158.952 75.6392L159.073 76.3445L157.215 76.7183ZM159.747 79.066C159.747 80.2978 159.142 80.9558 158.089 80.9558C157.036 80.9558 156.426 80.3083 156.426 79.066C156.426 78.0132 157.005 77.2026 158.089 77.2026C159.173 77.2026 159.747 78.0132 159.747 79.066Z" fill="#251F20"></path><path d="M162.59 80.8817V78.7445C162.59 78.2181 162.39 77.9444 161.953 77.9444C161.73 77.9549 161.515 78.0319 161.337 78.1655V80.887H160.389V77.2812H161.037L161.184 77.6917C161.324 77.5349 161.496 77.4103 161.689 77.3267C161.882 77.243 162.09 77.2024 162.3 77.2075C163.195 77.2075 163.548 77.7339 163.548 78.6551V80.887L162.59 80.8817Z" fill="#251F20"></path><path d="M167.322 76.7602L166.796 78.9816H168.123L167.628 76.7602H167.322ZM166.354 80.8819H165.427L166.754 75.918H168.333L169.602 80.8819H168.549L168.291 79.7607H166.601L166.354 80.8819Z" fill="#251F20"></path><path d="M172.087 78.4231C172.087 77.9967 171.734 77.8967 171.46 77.8967C171.187 77.8967 170.829 78.0073 170.829 78.4231C170.829 78.839 171.165 78.9916 171.46 78.9916C171.755 78.9916 172.087 78.8811 172.087 78.4231ZM171.339 80.6761C171.2 80.6761 171.066 80.7316 170.967 80.8303C170.868 80.929 170.813 81.0629 170.813 81.2025C170.82 81.2809 170.843 81.357 170.88 81.4263C170.917 81.4956 170.968 81.5567 171.03 81.6059C171.091 81.655 171.162 81.6913 171.238 81.7124C171.313 81.7336 171.393 81.7392 171.471 81.7289C171.897 81.7289 172.176 81.5078 172.176 81.1341C172.176 80.7604 171.902 80.7025 171.35 80.6603L171.339 80.6761ZM173.276 77.2598V77.9704C173.051 77.9597 172.828 77.919 172.613 77.8494C172.793 77.9899 172.918 78.1893 172.966 78.4126C172.966 79.297 172.108 79.6496 171.508 79.6496C171.354 79.6464 171.202 79.6234 171.055 79.5812C170.944 79.6233 170.881 79.6865 170.881 79.7812C170.881 80.1708 173.124 79.7181 173.124 81.0709C173.124 81.9132 172.334 82.3764 171.444 82.3764C170.702 82.3764 169.955 82.0448 169.955 81.3815C169.955 80.9235 170.313 80.6814 170.892 80.5919C170.45 80.5393 170.007 80.4024 170.007 79.9813C170.007 79.6812 170.281 79.4549 170.681 79.4549C170.489 79.3642 170.327 79.2203 170.214 79.0402C170.101 78.8602 170.042 78.6515 170.044 78.4389C170.044 77.4861 170.934 77.2124 171.502 77.2124C171.887 77.2124 172.681 77.2808 173.292 77.2861" fill="#251F20"></path><path d="M175.791 78.0764C175.649 78.0384 175.502 78.019 175.355 78.0185C175.122 78.0225 174.898 78.1082 174.723 78.2606V80.8926H173.781V77.2868H174.439L174.539 77.7711C174.617 77.614 174.737 77.4816 174.885 77.3887C175.034 77.2957 175.205 77.2459 175.381 77.2447C175.521 77.2437 175.661 77.2614 175.797 77.2973L175.791 78.0764Z" fill="#251F20"></path><path d="M178.129 79.3022H177.545C177.16 79.3022 176.976 79.497 176.976 79.7707C176.968 79.8419 176.976 79.914 176.999 79.9818C177.023 80.0495 177.061 80.111 177.112 80.1617C177.162 80.2124 177.224 80.2509 177.292 80.2743C177.359 80.2978 177.431 80.3056 177.503 80.2971C177.733 80.2893 177.954 80.204 178.129 80.055V79.3022ZM178.398 80.8814L178.266 80.455C178.144 80.6178 177.985 80.7484 177.802 80.8356C177.618 80.9227 177.416 80.9638 177.213 80.9551C177.061 80.9597 176.909 80.9326 176.768 80.8758C176.626 80.8189 176.498 80.7334 176.391 80.6246C176.285 80.5159 176.202 80.3862 176.147 80.2438C176.093 80.1014 176.069 79.9493 176.076 79.797C176.076 79.1285 176.56 78.7442 177.408 78.7442H178.15V78.56C178.165 78.476 178.16 78.3896 178.134 78.3082C178.108 78.2268 178.063 78.1529 178.003 78.0928C177.942 78.0327 177.868 77.9882 177.786 77.9633C177.705 77.9383 177.618 77.9335 177.534 77.9494C177.17 77.9534 176.811 78.036 176.481 78.1915L176.245 77.5072C176.685 77.3154 177.159 77.2151 177.64 77.2124C178.64 77.2124 179.071 77.6862 179.071 78.6021V80.892L178.398 80.8814Z" fill="#251F20"></path><path d="M181.798 78.0764C181.654 78.0388 181.505 78.0193 181.356 78.0184C181.123 78.0263 180.899 78.1115 180.719 78.2606V80.8926H179.761V77.2867H180.419L180.519 77.771C180.597 77.614 180.717 77.4816 180.866 77.3886C181.014 77.2957 181.186 77.2459 181.361 77.2446C181.501 77.2442 181.641 77.2619 181.777 77.2973L181.798 78.0764Z" fill="#251F20"></path><path d="M182.55 75.8071H183.503V76.681H182.55V75.8071ZM182.577 80.8816V77.9706L182.171 77.8812V77.2758H183.519V80.8816H182.577Z" fill="#251F20"></path><path d="M186.214 79.3022H185.63C185.24 79.3022 185.061 79.497 185.061 79.7707C185.053 79.8419 185.06 79.914 185.084 79.9818C185.107 80.0495 185.146 80.111 185.196 80.1617C185.247 80.2124 185.309 80.2509 185.376 80.2743C185.444 80.2978 185.516 80.3056 185.587 80.2971C185.818 80.2902 186.039 80.2047 186.214 80.055V79.3022ZM186.482 80.8814L186.351 80.455C186.228 80.6168 186.069 80.7467 185.885 80.8337C185.702 80.9208 185.501 80.9624 185.298 80.9551C185.142 80.9657 184.986 80.9432 184.839 80.8891C184.693 80.8349 184.56 80.7503 184.448 80.6409C184.337 80.5315 184.25 80.3997 184.193 80.2543C184.136 80.1088 184.111 79.953 184.119 79.797C184.119 79.1285 184.603 78.7442 185.451 78.7442H186.193V78.56C186.208 78.4755 186.203 78.3885 186.177 78.3066C186.151 78.2247 186.105 78.1504 186.044 78.0901C185.983 78.0299 185.908 77.9856 185.825 77.9611C185.743 77.9365 185.656 77.9325 185.572 77.9494C185.207 77.9532 184.848 78.0358 184.519 78.1915L184.277 77.5072C184.717 77.3165 185.192 77.2163 185.672 77.2124C186.677 77.2124 187.109 77.6862 187.109 78.6021V80.892L186.482 80.8814Z" fill="#251F20"></path><path d="M160 5.48535H157.915V34.5164H160V5.48535Z" fill="#174496"></path><path d="M167.738 21.8297V9.41714C173.76 11.7042 178.734 16.1206 181.719 21.8297H167.738ZM165.632 6.27979V34.5265H167.738V23.9511H182.714C184.082 27.228 184.785 30.744 184.782 34.2949C184.782 34.3423 184.782 34.3897 184.782 34.437H187.13V34.2949C187.13 20.7874 177.987 9.41714 165.679 6.27979" fill="#174496"></path><path d="M151.825 8.86971V6.40088C139.75 9.70669 130.838 20.9559 130.838 34.3002V34.4423H133.169C133.169 34.395 133.169 34.3423 133.169 34.3002C133.165 30.749 133.868 27.2326 135.238 23.9564H151.83V21.8508H136.228C137.837 18.7628 140.044 16.0264 142.722 13.8012C145.4 11.576 148.495 9.90668 151.825 8.89076" fill="#174496"></path><path d="M187.246 85.0977H153.799V88.3245H187.246V85.0977Z" fill="#E40D2C"></path><path d="M153.798 85.0977H130.758V88.3192H153.798V85.0977Z" fill="#174496"></path></svg>