<?xml version="1.0" encoding="UTF-8"?>
<svg id="a" xmlns="http://www.w3.org/2000/svg" viewBox="0 0 500 80">
  <rect width="500" height="80" style="fill: #fff;"/>
  <g>
    <path d="M4,20.6c-1.2-.7-2.2-1.6-2.8-2.7-.7-1.1-1-2.4-1-3.9s.3-2.8,1-3.9c.7-1.1,1.6-2.1,2.8-2.8,1.2-.7,2.6-1,4.1-1s2.8,.3,4,1,2.1,1.6,2.8,2.7,1,2.5,1,3.9-.4,2.8-1,3.9-1.6,2.1-2.8,2.7c-1.2,.7-2.5,1-4,1s-2.9-.3-4.1-.9h0Zm7.2-1.3c.9-.5,1.7-1.3,2.2-2.2,.6-1,.8-2,.8-3.2s-.3-2.2-.8-3.2-1.2-1.7-2.2-2.2-2-.8-3.2-.8-2.3,.3-3.2,.8c-1,.5-1.8,1.3-2.3,2.2s-.8,2-.8,3.2,.3,2.2,.8,3.2,1.3,1.7,2.3,2.2c1,.5,2,.8,3.2,.8s2.3-.2,3.2-.8Z" style="fill: #003b5c;"/>
    <path d="M27.8,10.8c.9,.5,1.5,1.1,2,2s.7,1.9,.7,3-.2,2.1-.7,3-1.1,1.6-2,2-1.8,.7-2.9,.7c-.9,0-1.8-.2-2.5-.6s-1.4-1-1.8-1.7v2.2h-1.5V5.5h1.5v6.8c.5-.7,1.1-1.3,1.8-1.7,.7-.4,1.6-.6,2.5-.6,1.1,.1,2,.3,2.9,.8h0Zm-.8,8.8c.6-.4,1.1-.9,1.5-1.6s.5-1.4,.5-2.3-.2-1.6-.5-2.3-.9-1.2-1.5-1.6c-.6-.4-1.4-.6-2.1-.6s-1.5,.2-2.2,.6c-.6,.4-1.1,.9-1.5,1.6-.4,.7-.5,1.4-.5,2.3s.2,1.6,.5,2.3,.9,1.2,1.5,1.6,1.4,.5,2.2,.5,1.4-.1,2.1-.5Z" style="fill: #003b5c;"/>
    <path d="M34.1,21.1c-.8-.3-1.5-.6-2-1l.7-1.2c.5,.4,1.1,.7,1.8,.9s1.5,.4,2.2,.4c1,0,1.8-.2,2.3-.5s.7-.8,.7-1.4c0-.4-.1-.7-.4-1s-.6-.4-1-.5-1-.2-1.7-.4c-.9-.2-1.7-.4-2.2-.5s-1-.5-1.4-.9-.6-1-.6-1.8c0-.9,.4-1.7,1.2-2.3s1.9-.9,3.3-.9c.7,0,1.5,.1,2.2,.3s1.3,.4,1.8,.8l-.7,1.2c-.9-.6-2-1-3.3-1-1,0-1.7,.2-2.2,.5-.5,.4-.7,.8-.7,1.4,0,.4,.1,.8,.4,1,.3,.2,.6,.4,1,.6s1,.2,1.7,.4c.9,.2,1.6,.4,2.2,.5s1,.5,1.4,.9,.6,1,.6,1.7c0,1-.4,1.8-1.2,2.4s-2,.9-3.4,.9c-1-.1-1.9-.2-2.7-.5h0Z" style="fill: #003b5c;"/>
    <path d="M54,16.2h-9.4c.1,1.2,.5,2.1,1.3,2.8,.8,.7,1.8,1.1,3.1,1.1,.7,0,1.3-.1,1.9-.4s1.1-.6,1.5-1.1l.9,1c-.5,.6-1.1,1.1-1.9,1.4-.8,.3-1.6,.5-2.5,.5-1.2,0-2.2-.2-3.1-.7s-1.6-1.2-2.1-2-.8-1.9-.8-3,.2-2.1,.7-3,1.1-1.6,2-2c.8-.5,1.8-.7,2.8-.7s2,.2,2.8,.7,1.5,1.2,2,2,.7,1.9,.7,3l.1,.4h0Zm-8.2-3.8c-.7,.7-1.2,1.6-1.3,2.7h8c-.1-1.1-.5-2-1.3-2.7-.7-.7-1.7-1.1-2.8-1.1s-1.9,.4-2.6,1.1h0Z" style="fill: #003b5c;"/>
    <path d="M60.2,10.6c.7-.4,1.6-.6,2.6-.6v1.5h-.4c-1.2,0-2.1,.4-2.8,1.1-.7,.7-1,1.8-1,3.1v5.8h-1.5V10.1h1.5v2.2c.3-.7,.8-1.3,1.6-1.7h0Z" style="fill: #003b5c;"/>
    <path d="M75.5,10.1l-5,11.3h-1.6l-5-11.3h1.6l4.2,9.6,4.3-9.6h1.5Z" style="fill: #003b5c;"/>
    <path d="M84.7,11.2c.8,.7,1.2,1.8,1.2,3.3v7h-1.5v-1.8c-.3,.6-.8,1-1.5,1.4-.7,.3-1.5,.5-2.4,.5-1.3,0-2.3-.3-3-.9s-1.1-1.4-1.1-2.4,.3-1.7,1.1-2.3c.7-.6,1.8-.9,3.3-.9h3.6v-.7c0-1-.3-1.7-.8-2.2s-1.3-.8-2.4-.8c-.7,0-1.4,.1-2.1,.4-.7,.2-1.2,.6-1.7,1l-.7-1.1c.6-.5,1.3-.9,2.1-1.1,.8-.3,1.7-.4,2.5-.4,1.4-.2,2.6,.2,3.4,1h0Zm-1.8,8.5c.6-.4,1.1-1,1.4-1.7v-1.9h-3.5c-1.9,0-2.9,.7-2.9,2,0,.7,.2,1.2,.8,1.6s1.2,.6,2.1,.6,1.5-.2,2.1-.6h0Z" style="fill: #003b5c;"/>
    <path d="M95.9,20.8c-.3,.2-.6,.5-1.1,.6s-.9,.2-1.3,.2c-1.1,0-1.9-.3-2.4-.9-.6-.6-.9-1.4-.9-2.4v-6.8h-2v-1.3h2v-2.5h1.5v2.5h3.4v1.3h-3.4v6.7c0,.7,.2,1.2,.5,1.5,.3,.4,.8,.5,1.4,.5,.3,0,.6,0,.9-.1s.6-.2,.8-.4l.6,1.1h0Z" style="fill: #003b5c;"/>
    <path d="M100,20.8c-.9-.5-1.6-1.2-2.1-2s-.8-1.9-.8-3,.2-2.1,.8-3,1.2-1.6,2.1-2,1.8-.7,2.9-.7,2.1,.2,2.9,.7,1.6,1.2,2.1,2c.5,.9,.7,1.9,.7,3s-.2,2.1-.7,3-1.2,1.6-2.1,2-1.8,.7-2.9,.7-2.1-.2-2.9-.7Zm5.1-1.2c.6-.4,1.1-.9,1.5-1.6s.5-1.4,.5-2.3-.2-1.6-.5-2.3c-.4-.7-.9-1.2-1.5-1.6-.6-.4-1.3-.6-2.2-.6s-1.5,.2-2.2,.6c-.6,.4-1.1,.9-1.5,1.6-.4,.7-.6,1.4-.6,2.3s.2,1.6,.6,2.3,.9,1.2,1.5,1.6,1.3,.5,2.2,.5,1.5-.1,2.2-.5Z" style="fill: #003b5c;"/>
    <path d="M114.8,10.6c.7-.4,1.6-.6,2.6-.6v1.5h-.4c-1.2,0-2.1,.4-2.8,1.1-.7,.7-1,1.8-1,3.1v5.8h-1.5V10.1h1.5v2.2c.3-.7,.9-1.3,1.6-1.7h0Z" style="fill: #003b5c;"/>
    <path d="M120.1,7.3c-.2-.2-.3-.5-.3-.8s.1-.5,.3-.8,.5-.3,.8-.3,.6,.1,.8,.3,.3,.5,.3,.7c0,.3-.1,.6-.3,.8s-.5,.3-.8,.3-.6,0-.8-.2h0Zm.1,2.8h1.5v11.3h-1.5V10.1h0Z" style="fill: #003b5c;"/>
    <path d="M127.6,20.8c-.9-.5-1.6-1.2-2.1-2s-.8-1.9-.8-3,.2-2.1,.8-3,1.2-1.6,2.1-2,1.9-.7,2.9-.7,2.1,.2,2.9,.7,1.6,1.2,2.1,2c.5,.9,.7,1.9,.7,3s-.2,2.1-.7,3-1.2,1.6-2.1,2-1.9,.7-2.9,.7-2-.2-2.9-.7Zm5.1-1.2c.6-.4,1.1-.9,1.5-1.6s.5-1.4,.5-2.3-.2-1.6-.5-2.3c-.4-.7-.9-1.2-1.5-1.6-.6-.4-1.4-.6-2.2-.6s-1.5,.2-2.2,.6c-.6,.4-1.1,.9-1.5,1.6-.4,.7-.6,1.4-.6,2.3s.2,1.6,.6,2.3,.9,1.2,1.5,1.6c.6,.4,1.4,.5,2.2,.5s1.6-.1,2.2-.5Z" style="fill: #003b5c;"/>
    <path d="M153.7,10.8c.9,.5,1.5,1.1,2,2s.7,1.9,.7,3-.2,2.1-.7,3-1.1,1.5-2,2-1.8,.7-2.9,.7c-.9,0-1.7-.2-2.5-.6-.7-.4-1.3-.9-1.8-1.7v6.3h-1.5V10.1h1.5v2.2c.5-.7,1.1-1.3,1.8-1.7,.8-.4,1.6-.6,2.6-.6,1,.1,1.9,.3,2.8,.8h0Zm-.8,8.8c.6-.4,1.1-.9,1.5-1.6s.6-1.4,.6-2.3-.2-1.6-.6-2.3-.9-1.2-1.5-1.6-1.4-.6-2.1-.6-1.5,.2-2.2,.6-1.1,.9-1.5,1.6c-.4,.7-.6,1.4-.6,2.3s.2,1.6,.6,2.3,.9,1.2,1.5,1.6,1.4,.5,2.2,.5,1.4-.1,2.1-.5Z" style="fill: #003b5c;"/>
    <path d="M166.8,11.2c.8,.7,1.2,1.8,1.2,3.3v7h-1.5v-1.8c-.4,.6-.8,1-1.5,1.4-.7,.3-1.5,.5-2.4,.5-1.3,0-2.3-.3-3-.9s-1.1-1.4-1.1-2.4,.4-1.7,1.1-2.3,1.8-.9,3.3-.9h3.6v-.7c0-1-.3-1.7-.8-2.2s-1.3-.8-2.4-.8c-.7,0-1.4,.1-2.1,.4-.7,.2-1.2,.6-1.7,1l-.7-1.1c.6-.5,1.3-.9,2.1-1.1s1.6-.4,2.5-.4c1.5-.2,2.6,.2,3.4,1h0Zm-1.7,8.5c.6-.4,1.1-1,1.4-1.7v-1.9h-3.5c-1.9,0-2.9,.7-2.9,2,0,.7,.2,1.2,.8,1.6s1.2,.6,2.1,.6,1.5-.2,2.1-.6h0Z" style="fill: #003b5c;"/>
    <path d="M175.2,10.6c.7-.4,1.6-.6,2.6-.6v1.5h-.4c-1.2,0-2.1,.4-2.8,1.1-.7,.7-1,1.8-1,3.1v5.8h-1.5V10.1h1.5v2.2c.4-.7,.9-1.3,1.6-1.7h0Z" style="fill: #003b5c;"/>
    <path d="M187.9,11.2c.8,.7,1.2,1.8,1.2,3.3v7h-1.5v-1.8c-.4,.6-.8,1-1.5,1.4-.7,.3-1.5,.5-2.4,.5-1.3,0-2.3-.3-3-.9s-1.1-1.4-1.1-2.4,.4-1.7,1.1-2.3,1.8-.9,3.3-.9h3.6v-.7c0-1-.3-1.7-.8-2.2s-1.3-.8-2.4-.8c-.7,0-1.4,.1-2.1,.4-.7,.2-1.2,.6-1.7,1l-.7-1.1c.6-.5,1.3-.9,2.1-1.1s1.6-.4,2.5-.4c1.5-.2,2.6,.2,3.4,1h0Zm-1.7,8.5c.6-.4,1.1-1,1.4-1.7v-1.9h-3.6c-1.9,0-2.9,.7-2.9,2,0,.7,.2,1.2,.8,1.6s1.2,.6,2.1,.6,1.6-.2,2.2-.6h0Z" style="fill: #003b5c;"/>
    <path d="M198.8,5.5h1.5v15.9h-1.5V5.5Z" style="fill: #003b5c;"/>
    <path d="M211.9,11.2c.8,.7,1.2,1.8,1.2,3.3v7h-1.5v-1.8c-.4,.6-.8,1-1.5,1.4-.7,.3-1.5,.5-2.4,.5-1.3,0-2.3-.3-3-.9s-1.1-1.4-1.1-2.4,.4-1.7,1.1-2.3,1.8-.9,3.3-.9h3.6v-.7c0-1-.3-1.7-.8-2.2s-1.3-.8-2.4-.8c-.7,0-1.4,.1-2.1,.4-.7,.2-1.2,.6-1.7,1l-.7-1.1c.6-.5,1.3-.9,2.1-1.1s1.6-.4,2.5-.4c1.5-.2,2.6,.2,3.4,1h0Zm-1.7,8.5c.6-.4,1.1-1,1.4-1.7v-1.9h-3.5c-1.9,0-2.9,.7-2.9,2,0,.7,.2,1.2,.8,1.6s1.2,.6,2.1,.6,1.5-.2,2.1-.6h0Z" style="fill: #003b5c;"/>
    <path d="M223.2,6.4h1.6v15h-1.6V6.4Z" style="fill: #003b5c;"/>
    <path d="M238.5,11.3c.8,.8,1.3,2,1.3,3.6v6.5h-1.5v-6.4c0-1.2-.3-2.1-.9-2.7s-1.4-.9-2.5-.9c-1.2,0-2.2,.4-2.9,1.1s-1.1,1.7-1.1,3v5.9h-1.5V10.1h1.5v2.1c.4-.7,1-1.2,1.7-1.6,.7-.4,1.6-.6,2.6-.6,1.3,.1,2.5,.5,3.3,1.3h0Z" style="fill: #003b5c;"/>
    <path d="M253,11.3c.8,.8,1.3,2,1.3,3.6v6.5h-1.5v-6.4c0-1.2-.3-2.1-.9-2.7s-1.4-.9-2.5-.9c-1.2,0-2.2,.4-2.9,1.1s-1.1,1.7-1.1,3v5.9h-1.5V10.1h1.5v2.1c.4-.7,1-1.2,1.7-1.6,.7-.4,1.6-.6,2.6-.6,1.3,.1,2.5,.5,3.3,1.3h0Z" style="fill: #003b5c;"/>
    <path d="M260.1,20.8c-.9-.5-1.6-1.2-2.1-2-.5-.9-.8-1.9-.8-3s.2-2.1,.8-3,1.2-1.6,2.1-2c.9-.5,1.9-.7,2.9-.7s2.1,.2,2.9,.7c.9,.5,1.6,1.2,2,2,.5,.9,.7,1.9,.7,3s-.2,2.1-.7,3-1.2,1.6-2,2-1.9,.7-2.9,.7-2-.2-2.9-.7Zm5.1-1.2c.6-.4,1.1-.9,1.5-1.6s.5-1.4,.5-2.3-.2-1.6-.5-2.3c-.4-.7-.9-1.2-1.5-1.6-.6-.4-1.4-.6-2.2-.6s-1.5,.2-2.2,.6c-.6,.4-1.1,.9-1.5,1.6-.4,.7-.5,1.4-.5,2.3s.2,1.6,.5,2.3,.9,1.2,1.5,1.6,1.4,.5,2.2,.5,1.6-.1,2.2-.5Z" style="fill: #003b5c;"/>
    <path d="M281.1,10.1l-5,11.3h-1.6l-5-11.3h1.6l4.2,9.6,4.3-9.6h1.5Z" style="fill: #003b5c;"/>
    <path d="M290.2,11.2c.8,.7,1.2,1.8,1.2,3.3v7h-1.5v-1.8c-.4,.6-.8,1-1.5,1.4s-1.5,.5-2.4,.5c-1.3,0-2.3-.3-3-.9s-1.1-1.4-1.1-2.4,.4-1.7,1-2.3c.7-.6,1.8-.9,3.3-.9h3.6v-.7c0-1-.3-1.7-.8-2.2s-1.3-.8-2.4-.8c-.7,0-1.4,.1-2.1,.4-.7,.2-1.2,.6-1.7,1l-.7-1.1c.6-.5,1.3-.9,2.1-1.1s1.6-.4,2.5-.4c1.6-.2,2.7,.2,3.5,1h0Zm-1.7,8.5c.6-.4,1.1-1,1.4-1.7v-1.9h-3.5c-1.9,0-2.9,.7-2.9,2,0,.7,.2,1.2,.8,1.6s1.2,.6,2.1,.6,1.5-.2,2.1-.6h0Z" style="fill: #003b5c;"/>
    <path d="M297.2,20.8c-.9-.5-1.6-1.2-2.1-2s-.8-1.9-.8-3,.2-2.1,.8-3,1.2-1.6,2.1-2c.9-.5,1.9-.7,3-.7,1,0,1.8,.2,2.6,.6s1.4,.9,1.8,1.7l-1.1,.8c-.4-.6-.8-1-1.4-1.3s-1.2-.4-1.9-.4c-.8,0-1.6,.2-2.2,.6-.7,.4-1.1,.9-1.5,1.6-.4,.7-.5,1.4-.5,2.3s.2,1.6,.5,2.3,.9,1.2,1.5,1.5,1.4,.5,2.2,.5c.7,0,1.3-.1,1.9-.4s1-.7,1.4-1.2l1.1,.8c-.4,.7-1,1.3-1.8,1.7s-1.6,.6-2.6,.6c-1.1-.3-2.1-.5-3-1h0Z" style="fill: #003b5c;"/>
    <path d="M307.6,7.3c-.2-.2-.3-.5-.3-.8s.1-.5,.3-.8c.2-.2,.5-.3,.8-.3s.6,.1,.8,.3,.3,.5,.3,.7c0,.3-.1,.6-.3,.8s-.5,.3-.8,.3-.6,0-.8-.2h0Zm.1,2.8h1.5v11.3h-1.5V10.1h0Z" style="fill: #003b5c;"/>
    <path d="M315.1,20.8c-.9-.5-1.6-1.2-2.1-2s-.8-1.9-.8-3,.2-2.1,.8-3,1.2-1.6,2.1-2,1.9-.7,2.9-.7,2.1,.2,2.9,.7c.9,.5,1.6,1.2,2,2s.7,1.9,.7,3-.2,2.1-.7,3-1.2,1.6-2,2-1.9,.7-2.9,.7-2-.2-2.9-.7Zm5.1-1.2c.6-.4,1.1-.9,1.5-1.6s.5-1.4,.5-2.3-.2-1.6-.5-2.3-.9-1.2-1.5-1.6c-.6-.4-1.4-.6-2.2-.6s-1.5,.2-2.2,.6c-.6,.4-1.1,.9-1.5,1.6-.4,.7-.5,1.4-.5,2.3s.2,1.6,.5,2.3,.9,1.2,1.5,1.6,1.4,.5,2.2,.5,1.5-.1,2.2-.5Zm-.7-13.9h2l-3.5,2.6h-1.5l3-2.6h0Z" style="fill: #003b5c;"/>
    <path d="M336,11.3c.8,.8,1.3,2,1.3,3.6v6.5h-1.5v-6.4c0-1.2-.3-2.1-.9-2.7s-1.4-.9-2.5-.9c-1.2,0-2.2,.4-2.9,1.1s-1.1,1.7-1.1,3v5.9h-1.5V10.1h1.5v2.1c.4-.7,1-1.2,1.7-1.6,.7-.4,1.6-.6,2.6-.6,1.3,.1,2.5,.5,3.3,1.3h0Z" style="fill: #003b5c;"/>
    <path d="M2.4,46.8c-1-.4-1.8-.8-2.4-1.4l.6-1.2c.6,.5,1.3,1,2.2,1.3,.9,.3,1.8,.5,2.8,.5,1.3,0,2.3-.2,3-.7s1-1.1,1-1.9c0-.6-.2-1.1-.6-1.4s-.8-.8-1.3-1-1.3-.4-2.2-.6c-1.1-.3-2-.6-2.7-.8-.7-.3-1.2-.7-1.7-1.2s-.7-1.3-.7-2.2c0-.8,.2-1.5,.6-2.1s1-1.1,1.9-1.5,1.8-.6,3-.6c.9,0,1.7,.1,2.5,.3,.8,.2,1.5,.6,2.1,1l-.5,1.3c-.6-.4-1.3-.7-2-.9s-1.4-.3-2.1-.3c-1.3,0-2.3,.2-3,.8s-1,1.2-1,2c0,.6,.2,1.1,.5,1.5s.8,.6,1.4,.8c.6,.2,1.3,.4,2.2,.6,1.1,.3,2,.5,2.7,.8s1.3,.7,1.7,1.2,.7,1.3,.7,2.2c0,.8-.2,1.5-.6,2.1-.4,.6-1,1.1-1.9,1.5-.8,.4-1.9,.5-3.1,.5-1.1-.1-2.1-.3-3.1-.6h0Z" style="fill: #003b5c;"/>
    <path d="M14.3,33.1c-.2-.2-.3-.5-.3-.8s.1-.5,.3-.8,.5-.3,.8-.3,.6,.1,.8,.3,.3,.5,.3,.7c0,.3-.1,.6-.3,.8s-.5,.3-.8,.3-.6,0-.8-.2h0Zm0,2.8h1.5v11.3h-1.5v-11.3Z" style="fill: #003b5c;"/>
    <path d="M20.1,31.3h1.5v15.9h-1.5v-15.9Z" style="fill: #003b5c;"/>
    <path d="M35.3,35.9l-5,11.3h-1.6l-5-11.3h1.6l4.2,9.6,4.3-9.6h1.5Z" style="fill: #003b5c;"/>
    <path d="M38.8,46.5c-.9-.5-1.6-1.2-2.1-2s-.8-1.9-.8-3,.2-2.1,.8-3,1.2-1.6,2.1-2,1.8-.7,2.9-.7,2.1,.2,2.9,.7c.9,.5,1.6,1.2,2,2s.7,1.9,.7,3-.2,2.1-.7,3-1.2,1.6-2,2c-.9,.5-1.8,.7-2.9,.7s-2-.2-2.9-.7Zm5.1-1.1c.6-.4,1.1-.9,1.5-1.6,.4-.7,.5-1.4,.5-2.3s-.2-1.6-.5-2.3-.9-1.2-1.5-1.6-1.3-.5-2.2-.5-1.5,.2-2.2,.5c-.6,.4-1.1,.9-1.5,1.6s-.5,1.4-.5,2.3,.2,1.6,.5,2.3,.9,1.2,1.5,1.6,1.3,.5,2.2,.5,1.6-.1,2.2-.5Z" style="fill: #003b5c;"/>
    <path d="M57.9,36.9c.8,.7,1.2,1.8,1.2,3.3v7h-1.5v-1.8c-.3,.6-.8,1-1.5,1.4-.7,.3-1.5,.5-2.4,.5-1.3,0-2.3-.3-3-.9s-1.1-1.4-1.1-2.4,.3-1.7,1-2.3,1.8-.9,3.3-.9h3.6v-.7c0-1-.3-1.7-.8-2.2s-1.3-.8-2.4-.8c-.7,0-1.4,.1-2.1,.3-.7,.2-1.2,.6-1.7,1l-.7-1.1c.6-.5,1.3-.9,2.1-1.1,.8-.3,1.7-.4,2.5-.4,1.6,0,2.7,.4,3.5,1.1h0Zm-1.7,8.6c.6-.4,1.1-1,1.4-1.7v-1.8h-3.6c-1.9,0-2.9,.7-2.9,2,0,.7,.2,1.2,.8,1.6s1.2,.6,2.1,.6,1.5-.3,2.2-.7h0Z" style="fill: #003b5c;"/>
    <path d="M73.7,35.9v9.9c0,1.9-.5,3.3-1.4,4.3s-2.3,1.4-4.2,1.4c-1.1,0-2-.2-3-.5s-1.7-.7-2.3-1.3l.8-1.2c.6,.5,1.2,.9,2,1.1,.8,.3,1.6,.4,2.4,.4,1.4,0,2.5-.3,3.2-1s1-1.7,1-3.1v-1.4c-.5,.7-1.1,1.3-1.8,1.6s-1.6,.6-2.6,.6c-1.1,0-2-.2-2.9-.7s-1.5-1.1-2-2c-.5-.8-.7-1.8-.7-2.8s.2-2,.7-2.8,1.2-1.5,2-1.9,1.8-.7,2.9-.7c.9,0,1.8,.2,2.6,.6s1.4,.9,1.9,1.7v-2.2h1.4Zm-3.6,9c.7-.3,1.2-.8,1.5-1.5s.6-1.3,.6-2.2-.2-1.5-.6-2.1-.9-1.1-1.5-1.5c-.7-.3-1.4-.5-2.2-.5s-1.5,.2-2.2,.5-1.2,.8-1.5,1.5c-.4,.6-.5,1.3-.5,2.2s.2,1.5,.5,2.2c.3,.7,.9,1.1,1.5,1.5,.7,.3,1.4,.5,2.2,.5s1.5-.3,2.2-.6h0Z" style="fill: #003b5c;"/>
    <path d="M81,36.4c.7-.4,1.6-.6,2.6-.6v1.5h-.4c-1.2,0-2.1,.4-2.8,1.1-.7,.7-1,1.8-1,3.1v5.8h-1.4v-11.4h1.5v2.2c.3-.8,.8-1.4,1.5-1.7h0Z" style="fill: #003b5c;"/>
    <path d="M88,46.5c-.9-.5-1.6-1.2-2.1-2s-.8-1.9-.8-3,.2-2.1,.8-3,1.2-1.6,2.1-2,1.8-.7,2.9-.7,2.1,.2,2.9,.7,1.6,1.2,2.1,2c.5,.9,.7,1.9,.7,3s-.2,2.1-.7,3-1.2,1.6-2.1,2-1.8,.7-2.9,.7-2.1-.2-2.9-.7Zm5.1-1.1c.6-.4,1.1-.9,1.5-1.6,.4-.7,.5-1.4,.5-2.3s-.2-1.6-.5-2.3c-.4-.7-.9-1.2-1.5-1.6s-1.3-.5-2.2-.5-1.5,.2-2.2,.5c-.6,.4-1.1,.9-1.5,1.6s-.6,1.4-.6,2.3,.2,1.6,.6,2.3,.9,1.2,1.5,1.6,1.3,.5,2.2,.5,1.5-.1,2.2-.5Z" style="fill: #003b5c;"/>
    <path d="M108.4,36.5c.9,.5,1.5,1.2,2,2s.7,1.9,.7,3-.2,2.1-.7,3-1.2,1.5-2,2-1.8,.7-2.9,.7c-.9,0-1.7-.2-2.5-.6-.7-.4-1.3-.9-1.8-1.7v6.3h-1.5v-15.3h1.5v2.2c.5-.7,1.1-1.3,1.8-1.7s1.6-.6,2.6-.6c1,0,2,.2,2.8,.7h0Zm-.8,8.9c.6-.4,1.2-.9,1.5-1.6s.6-1.4,.6-2.3-.2-1.6-.6-2.3-.9-1.2-1.5-1.6-1.3-.6-2.2-.6-1.5,.2-2.2,.6-1.1,.9-1.5,1.6-.6,1.4-.6,2.3,.2,1.6,.6,2.3,.9,1.2,1.5,1.6,1.3,.5,2.2,.5,1.5-.2,2.2-.5Z" style="fill: #003b5c;"/>
    <path d="M124.1,42h-9.4c.1,1.2,.5,2.1,1.3,2.8s1.8,1.1,3.1,1.1c.7,0,1.3-.1,1.9-.4s1.1-.6,1.5-1.1l.9,1c-.5,.6-1.1,1.1-1.9,1.4-.8,.3-1.6,.5-2.5,.5-1.2,0-2.2-.2-3.1-.7s-1.6-1.2-2.1-2-.8-1.9-.8-3,.2-2.1,.7-3,1.1-1.6,2-2,1.8-.7,2.8-.7,2,.2,2.8,.7,1.5,1.2,2,2,.7,1.8,.7,3c.1-.1,.1,.4,.1,.4Zm-8.2-3.8c-.7,.7-1.2,1.6-1.3,2.7h8c-.1-1.1-.5-2-1.3-2.7-.7-.7-1.7-1-2.8-1s-1.9,.3-2.6,1h0Z" style="fill: #003b5c;"/>
    <path d="M128.9,46.5c-.9-.5-1.6-1.2-2.1-2s-.8-1.9-.8-3,.2-2.1,.8-3,1.2-1.6,2.1-2c.9-.5,1.9-.7,3-.7,1,0,1.8,.2,2.6,.6s1.4,.9,1.8,1.7l-1.1,.8c-.4-.6-.8-1-1.4-1.3s-1.2-.4-1.9-.4c-.8,0-1.5,.2-2.2,.5s-1.1,.9-1.5,1.6-.6,1.4-.6,2.3,.2,1.6,.6,2.3c.4,.7,.9,1.2,1.5,1.5s1.4,.5,2.2,.5c.7,0,1.3-.1,1.9-.4,.6-.3,1.1-.7,1.4-1.2l1.1,.8c-.4,.7-1.1,1.3-1.8,1.7-.8,.4-1.6,.6-2.6,.6-1.1-.1-2.1-.4-3-.9h0Z" style="fill: #003b5c;"/>
    <path d="M149.5,35.9v11.3h-1.5v-2.1c-.4,.7-.9,1.2-1.6,1.6-.7,.4-1.5,.6-2.4,.6-1.5,0-2.6-.4-3.5-1.2-.8-.8-1.3-2-1.3-3.6v-6.5h1.5v6.4c0,1.2,.3,2.1,.9,2.7s1.4,.9,2.5,.9c1.2,0,2.1-.4,2.8-1.1,.7-.7,1-1.7,1-3v-5.9h1.6v-.1Z" style="fill: #003b5c;"/>
    <path d="M161.1,36.9c.8,.7,1.2,1.8,1.2,3.3v7h-1.5v-1.8c-.4,.6-.8,1-1.5,1.4-.7,.3-1.5,.5-2.4,.5-1.3,0-2.3-.3-3-.9s-1.1-1.4-1.1-2.4,.4-1.7,1.1-2.3,1.8-.9,3.3-.9h3.6v-.7c0-1-.3-1.7-.8-2.2s-1.3-.8-2.4-.8c-.7,0-1.4,.1-2.1,.3-.7,.2-1.2,.6-1.7,1l-.7-1.1c.6-.5,1.3-.9,2.1-1.1s1.6-.4,2.5-.4c1.5,0,2.6,.4,3.4,1.1h0Zm-1.7,8.6c.6-.4,1.1-1,1.4-1.7v-1.8h-3.5c-1.9,0-2.9,.7-2.9,2,0,.7,.2,1.2,.8,1.6s1.2,.6,2.1,.6,1.5-.3,2.1-.7h0Z" style="fill: #003b5c;"/>
    <path d="M169.5,36.4c.7-.4,1.6-.6,2.6-.6v1.5h-.4c-1.2,0-2.1,.4-2.8,1.1-.7,.7-1,1.8-1,3.1v5.8h-1.5v-11.4h1.5v2.2c.3-.8,.9-1.4,1.6-1.7h0Z" style="fill: #003b5c;"/>
    <path d="M174.8,33.1c-.2-.2-.3-.5-.3-.8s.1-.5,.3-.8,.5-.3,.8-.3,.6,.1,.8,.3,.3,.5,.3,.7c0,.3-.1,.6-.3,.8s-.5,.3-.8,.3-.6,0-.8-.2h0Zm.1,2.8h1.5v11.3h-1.5v-11.3Z" style="fill: #003b5c;"/>
    <path d="M188,36.9c.8,.7,1.2,1.8,1.2,3.3v7h-1.5v-1.8c-.4,.6-.8,1-1.5,1.4-.7,.3-1.5,.5-2.4,.5-1.3,0-2.3-.3-3-.9s-1.1-1.4-1.1-2.4,.4-1.7,1.1-2.3,1.8-.9,3.3-.9h3.6v-.7c0-1-.3-1.7-.8-2.2s-1.3-.8-2.4-.8c-.7,0-1.4,.1-2.1,.3-.7,.2-1.2,.6-1.7,1l-.7-1.1c.6-.5,1.3-.9,2.1-1.1s1.6-.4,2.5-.4c1.4,0,2.6,.4,3.4,1.1h0Zm-1.8,8.6c.6-.4,1.1-1,1.4-1.7v-1.8h-3.5c-1.9,0-2.9,.7-2.9,2,0,.7,.2,1.2,.8,1.6s1.2,.6,2.1,.6,1.5-.3,2.1-.7h0Z" style="fill: #003b5c;"/>
    <path d="M208.4,35.9l-5.6,12.6c-.5,1.1-1,1.8-1.6,2.2s-1.3,.7-2.2,.7c-.6,0-1.1-.1-1.5-.2-.5-.2-.9-.4-1.2-.8l.7-1.1c.6,.6,1.3,.9,2.1,.9,.5,0,.9-.2,1.3-.4s.7-.8,1-1.5l.5-1.1-5-11.3h1.6l4.2,9.6,4.2-9.6h1.5Z" style="fill: #003b5c;"/>
    <path d="M216.1,31.3h1.5v15.9h-1.5v-15.9Z" style="fill: #003b5c;"/>
    <path d="M229.2,36.9c.8,.7,1.2,1.8,1.2,3.3v7h-1.4v-1.8c-.4,.6-.8,1-1.5,1.4-.7,.3-1.5,.5-2.4,.5-1.3,0-2.3-.3-3-.9s-1.1-1.4-1.1-2.4,.4-1.7,1.1-2.3,1.8-.9,3.3-.9h3.6v-.7c0-1-.3-1.7-.8-2.2s-1.3-.8-2.4-.8c-.7,0-1.4,.1-2.1,.3-.7,.2-1.2,.6-1.7,1l-.7-1.1c.6-.5,1.3-.9,2.1-1.1s1.6-.4,2.5-.4c1.4,0,2.6,.4,3.3,1.1h0Zm-1.7,8.6c.6-.4,1.1-1,1.4-1.7v-1.8h-3.5c-1.9,0-2.9,.7-2.9,2,0,.7,.2,1.2,.8,1.6s1.2,.6,2.1,.6,1.5-.3,2.1-.7h0Z" style="fill: #003b5c;"/>
    <path d="M243,46.3c-1.2-.7-2.1-1.6-2.8-2.7-.7-1.2-1-2.5-1-3.9s.3-2.8,1-3.9c.7-1.2,1.6-2.1,2.8-2.7,1.2-.7,2.6-1,4-1,1.1,0,2.1,.2,3.1,.6s1.7,.9,2.4,1.6l-1,1c-1.2-1.2-2.6-1.8-4.4-1.8-1.2,0-2.3,.3-3.2,.8s-1.7,1.3-2.3,2.2-.8,2-.8,3.2,.3,2.2,.8,3.2c.6,.9,1.3,1.7,2.3,2.2s2.1,.8,3.2,.8c1.8,0,3.3-.6,4.4-1.8l1,1c-.7,.7-1.5,1.3-2.4,1.6s-2,.6-3.1,.6c-1.5,0-2.8-.3-4-1h0Z" style="fill: #003b5c;"/>
    <path d="M262.8,36.9c.8,.7,1.2,1.8,1.2,3.3v7h-1.5v-1.8c-.4,.6-.8,1-1.5,1.4s-1.5,.5-2.4,.5c-1.3,0-2.3-.3-3-.9-.7-.6-1.1-1.4-1.1-2.4s.4-1.7,1.1-2.3,1.8-.9,3.3-.9h3.6v-.7c0-1-.3-1.7-.8-2.2s-1.3-.8-2.4-.8c-.7,0-1.4,.1-2.1,.3s-1.2,.6-1.7,1l-.7-1.1c.6-.5,1.3-.9,2.1-1.1s1.6-.4,2.5-.4c1.4,0,2.6,.4,3.4,1.1h0Zm-1.8,8.6c.6-.4,1.1-1,1.4-1.7v-1.8h-3.5c-1.9,0-2.9,.7-2.9,2,0,.7,.2,1.2,.8,1.6s1.2,.6,2.1,.6,1.5-.3,2.1-.7h0Z" style="fill: #003b5c;"/>
    <path d="M278.4,31.3v15.9h-1.4v-2.2c-.5,.8-1.1,1.3-1.8,1.7s-1.6,.6-2.5,.6c-1.1,0-2-.2-2.9-.7s-1.5-1.2-2-2-.7-1.9-.7-3,.2-2.1,.7-3,1.1-1.6,2-2c.9-.5,1.8-.7,2.9-.7,.9,0,1.7,.2,2.5,.6s1.3,.9,1.8,1.7v-6.8l1.4-.1h0Zm-3.5,14.1c.6-.4,1.1-.9,1.5-1.6,.4-.7,.5-1.4,.5-2.3s-.2-1.6-.5-2.3-.9-1.2-1.5-1.6c-.6-.4-1.4-.5-2.1-.5s-1.5,.2-2.2,.5c-.6,.4-1.1,.9-1.5,1.6-.4,.7-.5,1.4-.5,2.3s.2,1.6,.5,2.3,.9,1.2,1.5,1.6c.6,.4,1.4,.5,2.2,.5s1.5-.2,2.1-.5Z" style="fill: #003b5c;"/>
    <path d="M292.5,42h-9.4c.1,1.2,.5,2.1,1.4,2.8,.8,.7,1.9,1.1,3.1,1.1,.7,0,1.3-.1,1.9-.4s1.1-.6,1.5-1.1l.9,1c-.5,.6-1.1,1.1-1.9,1.4-.8,.3-1.6,.5-2.5,.5-1.1,0-2.2-.2-3.1-.7s-1.6-1.2-2.1-2-.8-1.9-.8-3,.2-2.1,.7-3,1.1-1.6,2-2,1.8-.7,2.8-.7,2,.2,2.8,.7,1.5,1.2,2,2c.5,.9,.7,1.8,.7,3v.4h0Zm-8.2-3.8c-.7,.7-1.1,1.6-1.3,2.7h8c-.1-1.1-.5-2-1.3-2.7-.7-.7-1.7-1-2.8-1s-1.9,.3-2.6,1h0Z" style="fill: #003b5c;"/>
    <path d="M304.8,37c.8,.8,1.3,2,1.3,3.6v6.5h-1.5v-6.4c0-1.2-.3-2.1-.9-2.7s-1.4-.9-2.5-.9c-1.2,0-2.2,.4-2.9,1.1s-1.1,1.7-1.1,3v5.9h-1.5v-11.2h1.5v2.1c.4-.7,1-1.2,1.7-1.6,.7-.4,1.6-.6,2.6-.6,1.3,0,2.4,.4,3.3,1.2h0Z" style="fill: #003b5c;"/>
    <path d="M317.5,36.9c.8,.7,1.2,1.8,1.2,3.3v7h-1.5v-1.8c-.4,.6-.8,1-1.5,1.4s-1.5,.5-2.4,.5c-1.3,0-2.3-.3-3-.9s-1.1-1.4-1.1-2.4,.4-1.7,1-2.3,1.8-.9,3.3-.9h3.6v-.7c0-1-.3-1.7-.8-2.2s-1.3-.8-2.4-.8c-.7,0-1.4,.1-2.1,.3s-1.2,.6-1.7,1l-.7-1.1c.6-.5,1.3-.9,2.1-1.1s1.6-.4,2.5-.4c1.6,0,2.7,.4,3.5,1.1h0Zm-1.7,8.6c.6-.4,1.1-1,1.4-1.7v-1.8h-3.5c-1.9,0-2.9,.7-2.9,2,0,.7,.2,1.2,.8,1.6s1.2,.6,2.1,.6,1.5-.3,2.1-.7h0Z" style="fill: #003b5c;"/>
    <path d="M338.2,43.2h-8.4l-1.8,4h-1.6l6.9-15h1.6l6.9,15h-1.8l-1.8-4h0Zm-.6-1.3l-3.6-8.1-3.6,8.1h7.2Z" style="fill: #003b5c;"/>
    <path d="M354.2,35.9v9.9c0,1.9-.5,3.3-1.4,4.3-.9,.9-2.4,1.4-4.2,1.4-1,0-2-.2-3-.5s-1.7-.7-2.3-1.3l.8-1.2c.5,.5,1.2,.9,2,1.1,.8,.3,1.6,.4,2.5,.4,1.4,0,2.5-.3,3.1-1,.7-.7,1-1.7,1-3.1v-1.4c-.5,.7-1.1,1.3-1.9,1.6s-1.6,.6-2.5,.6c-1.1,0-2-.2-2.9-.7s-1.5-1.1-2-2-.7-1.8-.7-2.8,.2-2,.7-2.8,1.2-1.5,2-1.9,1.8-.7,2.9-.7c1,0,1.8,.2,2.6,.6,.8,.4,1.4,.9,1.9,1.7v-2.2h1.4Zm-3.6,9c.7-.3,1.2-.8,1.5-1.5s.5-1.3,.5-2.2-.2-1.5-.5-2.1-.9-1.1-1.5-1.5-1.4-.5-2.2-.5-1.6,.2-2.2,.5c-.7,.3-1.1,.8-1.5,1.5-.4,.6-.5,1.3-.5,2.2s.2,1.5,.5,2.2,.9,1.1,1.5,1.5c.7,.3,1.4,.5,2.2,.5s1.5-.3,2.2-.6h0Z" style="fill: #003b5c;"/>
    <path d="M361.5,36.4c.7-.4,1.6-.6,2.6-.6v1.5h-.4c-1.2,0-2.1,.4-2.8,1.1-.7,.7-1,1.8-1,3.1v5.8h-1.5v-11.4h1.5v2.2c.4-.8,.9-1.4,1.6-1.7h0Z" style="fill: #003b5c;"/>
    <path d="M368.5,46.5c-.9-.5-1.6-1.2-2.1-2s-.8-1.9-.8-3,.2-2.1,.8-3,1.2-1.6,2.1-2,1.9-.7,2.9-.7,2.1,.2,2.9,.7,1.6,1.2,2,2,.7,1.9,.7,3-.2,2.1-.7,3-1.2,1.6-2,2-1.9,.7-2.9,.7-2.1-.2-2.9-.7Zm5.1-1.1c.6-.4,1.1-.9,1.5-1.6,.4-.7,.5-1.4,.5-2.3s-.2-1.6-.5-2.3-.9-1.2-1.5-1.6c-.6-.4-1.4-.5-2.2-.5s-1.5,.2-2.2,.5c-.6,.4-1.1,.9-1.5,1.6s-.5,1.4-.5,2.3,.2,1.6,.5,2.3,.9,1.2,1.5,1.6,1.4,.5,2.2,.5,1.5-.1,2.2-.5Z" style="fill: #003b5c;"/>
    <path d="M387.5,36.9c.8,.7,1.2,1.8,1.2,3.3v7h-1.5v-1.8c-.4,.6-.8,1-1.5,1.4s-1.5,.5-2.4,.5c-1.3,0-2.3-.3-3-.9s-1.1-1.4-1.1-2.4,.4-1.7,1-2.3,1.8-.9,3.3-.9h3.6v-.7c0-1-.3-1.7-.8-2.2s-1.3-.8-2.4-.8c-.7,0-1.4,.1-2.1,.3s-1.2,.6-1.7,1l-.7-1.1c.6-.5,1.3-.9,2.1-1.1s1.6-.4,2.5-.4c1.6,0,2.7,.4,3.5,1.1h0Zm-1.7,8.6c.6-.4,1.1-1,1.4-1.7v-1.8h-3.5c-1.9,0-2.9,.7-2.9,2,0,.7,.2,1.2,.8,1.6s1.2,.6,2.1,.6,1.5-.3,2.1-.7h0Z" style="fill: #003b5c;"/>
    <path d="M392.8,31.3h1.5v15.9h-1.5v-15.9Z" style="fill: #003b5c;"/>
    <path d="M398.6,33.1c-.2-.2-.3-.5-.3-.8s.1-.5,.3-.8,.5-.3,.8-.3,.6,.1,.8,.3,.3,.5,.3,.7c0,.3-.1,.6-.3,.8s-.5,.3-.8,.3-.6,0-.8-.2h0Zm0,2.8h1.5v11.3h-1.5v-11.3Z" style="fill: #003b5c;"/>
    <path d="M421.8,37c.8,.8,1.2,2,1.2,3.6v6.5h-1.5v-6.4c0-1.2-.3-2.1-.8-2.7s-1.4-.9-2.4-.9c-1.2,0-2.1,.4-2.8,1.1s-1,1.7-1,3v5.9h-1.5v-6.4c0-1.2-.3-2.1-.8-2.7s-1.4-.9-2.4-.9c-1.1,0-2.1,.4-2.8,1.1s-1,1.7-1,3v5.9h-1.5v-11.2h1.5v2.1c.4-.7,1-1.2,1.7-1.6,.7-.4,1.5-.6,2.5-.6s1.8,.2,2.5,.6,1.2,1,1.6,1.8c.4-.7,1-1.3,1.8-1.7s1.7-.6,2.7-.6c1.1-.1,2.2,.3,3,1.1h0Z" style="fill: #003b5c;"/>
    <path d="M437,42h-9.4c.1,1.2,.5,2.1,1.4,2.8,.8,.7,1.9,1.1,3.1,1.1,.7,0,1.3-.1,1.9-.4s1.1-.6,1.5-1.1l.9,1c-.5,.6-1.1,1.1-1.9,1.4-.8,.3-1.6,.5-2.5,.5-1.1,0-2.2-.2-3.1-.7s-1.6-1.2-2.1-2-.8-1.9-.8-3,.2-2.1,.7-3,1.1-1.6,2-2,1.8-.7,2.8-.7,2,.2,2.8,.7,1.5,1.2,2,2c.5,.9,.7,1.8,.7,3v.4h0Zm-8.2-3.8c-.7,.7-1.1,1.6-1.3,2.7h8c-.1-1.1-.5-2-1.3-2.7-.7-.7-1.7-1-2.8-1s-1.9,.3-2.6,1h0Z" style="fill: #003b5c;"/>
    <path d="M449.2,37c.8,.8,1.3,2,1.3,3.6v6.5h-1.5v-6.4c0-1.2-.3-2.1-.9-2.7s-1.4-.9-2.5-.9c-1.2,0-2.2,.4-2.9,1.1s-1.1,1.7-1.1,3v5.9h-1.5v-11.2h1.5v2.1c.4-.7,1-1.2,1.7-1.6,.7-.4,1.6-.6,2.6-.6,1.4,0,2.5,.4,3.3,1.2h0Z" style="fill: #003b5c;"/>
    <path d="M460.6,46.5c-.3,.2-.6,.5-1.1,.6s-.9,.2-1.3,.2c-1.1,0-1.9-.3-2.4-.9s-.9-1.4-.9-2.4v-6.8h-2v-1.3h2v-2.5h1.5v2.5h3.4v1.3h-3.4v6.7c0,.7,.2,1.2,.5,1.5s.8,.5,1.5,.5c.3,0,.6,0,.9-.2s.5-.2,.8-.4l.5,1.2h0Z" style="fill: #003b5c;"/>
    <path d="M470.7,36.9c.8,.7,1.2,1.8,1.2,3.3v7h-1.5v-1.8c-.4,.6-.8,1-1.5,1.4s-1.5,.5-2.4,.5c-1.3,0-2.3-.3-3-.9s-1.1-1.4-1.1-2.4,.4-1.7,1-2.3,1.8-.9,3.3-.9h3.6v-.7c0-1-.3-1.7-.8-2.2s-1.3-.8-2.4-.8c-.7,0-1.4,.1-2.1,.3s-1.2,.6-1.7,1l-.7-1.1c.6-.5,1.3-.9,2.1-1.1s1.6-.4,2.5-.4c1.6,0,2.7,.4,3.5,1.1h0Zm-1.7,8.6c.6-.4,1.1-1,1.4-1.7v-1.8h-3.5c-1.9,0-2.9,.7-2.9,2,0,.7,.2,1.2,.8,1.6s1.2,.6,2.1,.6,1.4-.3,2.1-.7h0Z" style="fill: #003b5c;"/>
    <path d="M479.1,36.4c.7-.4,1.6-.6,2.6-.6v1.5h-.4c-1.2,0-2.1,.4-2.8,1.1-.7,.7-1,1.8-1,3.1v5.8h-1.5v-11.4h1.5v2.2c.3-.8,.8-1.4,1.6-1.7h0Z" style="fill: #003b5c;"/>
    <path d="M484.4,33.1c-.2-.2-.3-.5-.3-.8s.1-.5,.3-.8,.5-.3,.8-.3,.6,.1,.8,.3,.3,.5,.3,.7c0,.3-.1,.6-.3,.8s-.5,.3-.8,.3-.6,0-.8-.2h0Zm0,2.8h1.5v11.3h-1.5v-11.3Z" style="fill: #003b5c;"/>
    <path d="M497.5,36.9c.8,.7,1.2,1.8,1.2,3.3v7h-1.5v-1.8c-.4,.6-.8,1-1.5,1.4s-1.5,.5-2.4,.5c-1.3,0-2.3-.3-3-.9s-1.1-1.4-1.1-2.4,.4-1.7,1-2.3,1.8-.9,3.3-.9h3.6v-.7c0-1-.3-1.7-.8-2.2s-1.3-.8-2.4-.8c-.7,0-1.4,.1-2.1,.3s-1.2,.6-1.7,1l-.7-1.1c.6-.5,1.3-.9,2.1-1.1s1.6-.4,2.5-.4c1.6,0,2.8,.4,3.5,1.1h0Zm-1.7,8.6c.6-.4,1.1-1,1.4-1.7v-1.8h-3.5c-1.9,0-2.9,.7-2.9,2,0,.7,.2,1.2,.8,1.6s1.2,.6,2.1,.6,1.5-.3,2.1-.7h0Z" style="fill: #003b5c;"/>
    <path d="M2.6,65.7v4.2h6.1v1.5H2.6v4.9H.8v-12.2H9.4v1.5H2.6v.1Z" style="fill: #62a731;"/>
    <path d="M13.1,75.1c-.9-.9-1.4-2.3-1.4-4v-6.9h1.7v6.8c0,2.6,1.1,3.9,3.4,3.9,1.1,0,2-.3,2.6-1s.9-1.6,.9-2.9v-6.9h1.7v6.9c0,1.8-.5,3.1-1.4,4s-2.2,1.4-3.8,1.4-2.7-.4-3.7-1.3h0Z" style="fill: #62a731;"/>
    <path d="M36.2,64.1v12.2h-1.4l-7.3-9.1v9.1h-1.7v-12.2h1.4l7.3,9.1v-9.1c-.1,0,1.7,0,1.7,0Z" style="fill: #62a731;"/>
    <path d="M39.8,64.1h5.2c1.3,0,2.4,.2,3.4,.8,1,.5,1.8,1.2,2.3,2.2,.5,.9,.8,2,.8,3.2s-.3,2.2-.8,3.2-1.3,1.6-2.3,2.2c-1,.5-2.2,.8-3.4,.8h-5.1l-.1-12.4h0Zm5.1,10.7c1,0,1.8-.2,2.6-.6s1.3-.9,1.7-1.6,.6-1.5,.6-2.4-.2-1.7-.6-2.4c-.4-.7-1-1.2-1.7-1.6s-1.6-.6-2.6-.6h-3.3v9.2h3.3Z" style="fill: #62a731;"/>
    <path d="M61.8,73.3h-6.5l-1.3,3h-1.8l5.5-12.2h1.7l5.6,12.2h-1.8l-1.4-3Zm-.6-1.4l-2.6-6-2.6,6h5.2Z" style="fill: #62a731;"/>
    <path d="M68.8,75.7c-1-.5-1.8-1.3-2.3-2.2-.6-.9-.8-2-.8-3.2s.3-2.2,.8-3.2,1.3-1.7,2.3-2.2,2.1-.8,3.3-.8c.9,0,1.8,.2,2.6,.5s1.5,.8,2,1.4l-1.1,1c-.9-1-2.1-1.4-3.4-1.4-.9,0-1.7,.2-2.4,.6s-1.3,1-1.7,1.7-.6,1.5-.6,2.4,.2,1.7,.6,2.4c.4,.7,1,1.3,1.7,1.7s1.6,.6,2.4,.6c1.3,0,2.5-.5,3.4-1.5l1.1,1.1c-.6,.6-1.2,1.1-2,1.4s-1.7,.5-2.6,.5c-1.2,0-2.3-.3-3.3-.8h0Z" style="fill: #62a731;"/>
    <path d="M79.2,64.1h1.8v12.2h-1.7v-12.2h-.1Z" style="fill: #62a731;"/>
    <path d="M86.8,75.7c-1-.5-1.8-1.3-2.3-2.2s-.8-2-.8-3.2,.3-2.2,.8-3.2c.6-.9,1.3-1.7,2.3-2.2s2.1-.8,3.3-.8,2.3,.3,3.3,.8,1.8,1.3,2.3,2.2,.8,2,.8,3.2-.3,2.2-.8,3.2c-.6,.9-1.3,1.7-2.3,2.2s-2.1,.8-3.3,.8-2.3-.3-3.3-.8Zm5.8-1.4c.7-.4,1.3-1,1.7-1.7,.4-.7,.6-1.5,.6-2.4s-.2-1.7-.6-2.4c-.4-.7-1-1.3-1.7-1.7s-1.5-.6-2.4-.6-1.7,.2-2.4,.6c-.7,.4-1.3,1-1.7,1.7-.4,.7-.6,1.5-.6,2.4s.2,1.7,.6,2.4c.4,.7,1,1.3,1.7,1.7,.7,.4,1.5,.6,2.4,.6s1.7-.2,2.4-.6Zm-1.4-13.4h2.1l-2.9,2.3h-1.6l2.4-2.3h0Z" style="fill: #62a731;"/>
    <path d="M109.8,64.1v12.2h-1.4l-7.3-9.1v9.1h-1.7v-12.2h1.4l7.3,9.1v-9.1h1.7Z" style="fill: #62a731;"/>
    <path d="M126.6,65.3c.9,.8,1.3,1.8,1.3,3.1s-.5,2.4-1.3,3.1c-.9,.8-2.2,1.1-3.7,1.1h-3v3.7h-1.7v-12.2h4.8c1.5,0,2.7,.4,3.6,1.2Zm-1.2,5.1c.6-.5,.9-1.2,.9-2s-.3-1.6-.9-2-1.4-.7-2.5-.7h-3v5.5h3c1-.1,1.9-.3,2.5-.8h0Z" style="fill: #62a731;"/>
    <path d="M137.7,73.3h-6.5l-1.3,3.1h-1.8l5.5-12.2h1.7l5.5,12.2h-1.8l-1.3-3.1h0Zm-.6-1.4l-2.6-6-2.6,6h5.2Z" style="fill: #62a731;"/>
    <path d="M150.9,76.3l-2.6-3.7h-3.8v3.7h-1.7v-12.1h4.8c1.6,0,2.8,.4,3.7,1.1,.9,.8,1.4,1.8,1.4,3.1,0,.9-.2,1.7-.7,2.4s-1.1,1.1-2,1.4l2.9,4.1h-2Zm-1-5.9c.6-.5,.9-1.2,.9-2s-.3-1.6-.9-2-1.4-.7-2.5-.7h-3v5.5h3c1.1-.1,2-.3,2.5-.8Z" style="fill: #62a731;"/>
    <path d="M163.1,73.3h-6.5l-1.3,3.1h-1.8l5.5-12.2h1.7l5.5,12.2h-1.8l-1.3-3.1h0Zm-.6-1.4l-2.6-6-2.6,6h5.2Z" style="fill: #62a731;"/>
    <path d="M172.8,64.1h1.7v10.7h6.6v1.5h-8.4v-12.2h.1Z" style="fill: #62a731;"/>
    <path d="M191,73.3h-6.5l-1.3,3.1h-1.8l5.5-12.2h1.7l5.5,12.2h-1.8l-1.3-3.1h0Zm-.6-1.4l-2.6-6-2.6,6h5.2Z" style="fill: #62a731;"/>
    <path d="M200.7,64.1h1.7v12.2h-1.7v-12.2Z" style="fill: #62a731;"/>
    <path d="M216.6,64.1v12.2h-1.4l-7.3-9.1v9.1h-1.7v-12.2h1.4l7.3,9.1v-9.1h1.7Z" style="fill: #62a731;"/>
    <path d="M230.7,64.1v12.2h-1.4l-7.3-9.1v9.1h-1.7v-12.2h1.4l7.3,9.1v-9.1h1.7Z" style="fill: #62a731;"/>
    <path d="M236.6,75.7c-1-.5-1.8-1.3-2.3-2.2s-.8-2-.8-3.2,.3-2.2,.8-3.2c.6-.9,1.3-1.7,2.3-2.2s2.1-.8,3.3-.8,2.3,.3,3.3,.8,1.8,1.3,2.3,2.2c.6,.9,.8,2,.8,3.2s-.3,2.2-.8,3.2c-.6,.9-1.3,1.7-2.3,2.2s-2.1,.8-3.3,.8-2.4-.3-3.3-.8Zm5.7-1.4c.7-.4,1.3-1,1.7-1.7s.6-1.5,.6-2.4-.2-1.7-.6-2.4c-.4-.7-1-1.3-1.7-1.7s-1.5-.6-2.4-.6-1.7,.2-2.4,.6-1.3,1-1.7,1.7-.6,1.5-.6,2.4,.2,1.7,.6,2.4c.4,.7,1,1.3,1.7,1.7,.7,.4,1.5,.6,2.4,.6s1.7-.2,2.4-.6Z" style="fill: #62a731;"/>
    <path d="M259.2,64.1l-5.4,12.2h-1.7l-5.4-12.2h1.9l4.4,10,4.4-10h1.8Z" style="fill: #62a731;"/>
    <path d="M268.2,73.3h-6.5l-1.3,3.1h-1.8l5.5-12.2h1.7l5.5,12.2h-1.8l-1.3-3.1h0Zm-.6-1.4l-2.6-6-2.6,6h5.2Z" style="fill: #62a731;"/>
    <path d="M275.1,75.7c-1-.5-1.8-1.3-2.3-2.2-.6-.9-.8-2-.8-3.2s.3-2.2,.8-3.2,1.3-1.7,2.3-2.2,2.1-.8,3.3-.8c1,0,1.8,.2,2.6,.5s1.5,.8,2,1.4l-1.1,1.1c-.9-1-2.1-1.4-3.4-1.4-.9,0-1.7,.2-2.5,.6s-1.3,1-1.7,1.7-.6,1.5-.6,2.4,.2,1.7,.6,2.4,1,1.3,1.7,1.7,1.6,.6,2.5,.6c1.4,0,2.5-.5,3.4-1.5l1.1,1.1c-.6,.6-1.2,1.1-2,1.4s-1.7,.5-2.6,.5c-1.2-.1-2.3-.4-3.3-.9h0Z" style="fill: #62a731;"/>
    <path d="M285.6,64.1h1.7v12.2h-1.7v-12.2Z" style="fill: #62a731;"/>
    <path d="M293.2,75.7c-1-.5-1.8-1.3-2.3-2.2s-.8-2-.8-3.2,.3-2.2,.8-3.2c.6-.9,1.3-1.7,2.3-2.2s2.1-.8,3.3-.8,2.3,.3,3.3,.8,1.8,1.3,2.3,2.2,.8,2,.8,3.2-.3,2.2-.8,3.2c-.6,.9-1.3,1.7-2.3,2.2s-2.1,.8-3.3,.8-2.4-.3-3.3-.8Zm5.7-1.4c.7-.4,1.3-1,1.7-1.7s.6-1.5,.6-2.4-.2-1.7-.6-2.4c-.4-.7-1-1.3-1.7-1.7s-1.5-.6-2.4-.6-1.7,.2-2.4,.6c-.7,.4-1.3,1-1.7,1.7-.4,.7-.6,1.5-.6,2.4s.2,1.7,.6,2.4,1,1.3,1.7,1.7c.7,.4,1.5,.6,2.4,.6s1.7-.2,2.4-.6Zm-1.3-13.4h2.1l-2.9,2.3h-1.6l2.4-2.3h0Z" style="fill: #62a731;"/>
    <path d="M316.1,64.1v12.2h-1.4l-7.3-9.1v9.1h-1.7v-12.2h1.4l7.3,9.1v-9.1h1.7Z" style="fill: #62a731;"/>
    <path d="M332.3,73.3h-6.5l-1.3,3.1h-1.8l5.5-12.2h1.7l5.5,12.2h-1.8l-1.3-3.1h0Zm-.7-1.4l-2.6-6-2.6,6h5.2Z" style="fill: #62a731;"/>
    <path d="M345.5,70.2h1.7v4.8c-.6,.5-1.3,.9-2.1,1.2s-1.6,.4-2.5,.4c-1.2,0-2.4-.3-3.3-.8-1-.5-1.8-1.3-2.3-2.2-.6-.9-.8-2-.8-3.2s.3-2.2,.8-3.2,1.3-1.7,2.3-2.2,2.1-.8,3.4-.8c1,0,1.9,.2,2.6,.5s1.5,.8,2,1.4l-1.1,1.1c-1-.9-2.2-1.4-3.5-1.4-.9,0-1.8,.2-2.5,.6s-1.3,.9-1.7,1.7c-.4,.7-.6,1.5-.6,2.4s.2,1.7,.6,2.4c.4,.7,1,1.3,1.7,1.7s1.6,.6,2.5,.6c1.1,0,2-.3,2.9-.8l-.1-4.2h0Z" style="fill: #62a731;"/>
    <path d="M358.7,76.3l-2.6-3.7h-3.8v3.7h-1.7v-12.1h4.8c1.6,0,2.8,.4,3.7,1.1,.9,.8,1.4,1.8,1.4,3.1,0,.9-.2,1.7-.7,2.4s-1.1,1.1-2,1.4l2.9,4.1h-2Zm-1-5.9c.6-.5,.9-1.2,.9-2s-.3-1.6-.9-2-1.4-.7-2.5-.7h-3v5.5h3c1.1-.1,2-.3,2.5-.8Z" style="fill: #62a731;"/>
    <path d="M371,73.3h-6.5l-1.3,3.1h-1.8l5.5-12.2h1.7l5.5,12.2h-1.8l-1.3-3.1h0Zm-.6-1.4l-2.6-6-2.6,6h5.2Z" style="fill: #62a731;"/>
    <path d="M384.4,76.3l-2.6-3.7h-3.8v3.7h-1.7v-12.1h4.8c1.6,0,2.8,.4,3.7,1.1,.9,.8,1.4,1.8,1.4,3.1,0,.9-.2,1.7-.7,2.4s-1.1,1.1-2,1.4l2.9,4.1h-2Zm-.9-5.9c.6-.5,.9-1.2,.9-2s-.3-1.6-.9-2-1.4-.7-2.5-.7h-3v5.5h3c1-.1,1.9-.3,2.5-.8Z" style="fill: #62a731;"/>
    <path d="M388.9,64.1h1.7v12.2h-1.7v-12.2Z" style="fill: #62a731;"/>
    <path d="M402.1,73.3h-6.5l-1.3,3.1h-1.8l5.5-12.2h1.7l5.5,12.2h-1.8l-1.3-3.1h0Zm-.6-1.4l-2.6-6-2.6,6h5.2Z" style="fill: #62a731;"/>
  </g>
</svg>